<svg xmlns="http://www.w3.org/2000/svg" xmlns:xlink="http://www.w3.org/1999/xlink" viewBox="0 0 90 180"><defs><style>.a{fill:#f1f5ff;stroke:#42566b;stroke-miterlimit:10;}.b{fill:#da172d;}.c{fill:#426fb5;}.d{fill:url(#a);}.e{fill:#ae172d;}.f{fill:url(#b);}</style><radialGradient id="a" cx="48.65" cy="44.09" r="5.56" gradientUnits="userSpaceOnUse"><stop offset="0.02" stop-color="#da172d"/><stop offset="0.45" stop-color="#d7152b"/><stop offset="0.82" stop-color="#cc0d24"/><stop offset="1" stop-color="#c4081f"/></radialGradient><radialGradient id="b" cx="47.5" cy="38.81" r="2.63" xlink:href="#a"/></defs><path class="a" d="M82.67,89.89a13.7,13.7,0,0,1-3.37-3.12,9.18,9.18,0,0,0-3.8-2.6,3.18,3.18,0,0,1-.77-.36c-.47-.33-.55-1-.68-1.56s-.23-1.06-.37-1.58a21.67,21.67,0,0,1-.54-5.51c0-6.61-1.36-12.32-2.08-13.85s-1.18-2.72-2-9,.78-5.23,0-12.77-6.59-8.88-9.18-9.48a41.34,41.34,0,0,1-8.94-3.58c-.51-.39-.59-2.36-.54-4.26A12.14,12.14,0,0,0,51.87,18c.13.16.39.46.63.48s.79-1,.94-1.55a8.39,8.39,0,0,0,.12-3.1c-.22-.7-.74-.15-.92.12a.92.92,0,0,1-.33.27c0-.92.1-1.84.23-2.75a10.87,10.87,0,0,0-.47-5.27c-1.29-3.66-6.31-3.92-7-3.94h0c-.7,0-5.73.28-7,3.94a10.74,10.74,0,0,0-.46,5.27c.13.91.18,1.83.23,2.75a1.07,1.07,0,0,1-.34-.27c-.17-.27-.69-.82-.92-.12a8.6,8.6,0,0,0,.13,3.1c.15.55.62,1.57.94,1.55s.5-.32.62-.48a12.56,12.56,0,0,0,1.49,4.23c.05,1.9,0,3.87-.53,4.26a41.34,41.34,0,0,1-8.94,3.58c-2.6.6-8.39,1.93-9.18,9.48s.85,6.52,0,12.77-1.3,7.43-2,9S17,68.55,17,75.16a21.2,21.2,0,0,1-.54,5.51c-.14.52-.24,1-.36,1.58s-.21,1.23-.69,1.56a3.11,3.11,0,0,1-.76.36,9.15,9.15,0,0,0-3.81,2.6,13.91,13.91,0,0,1-3.36,3.12c-.78.55-.52,1.92,1.25,1.52s2.94-2.65,3.37-2.52-.48,3.46-.85,4.58-.72,2.47-1,3.16a3.26,3.26,0,0,0,0,2.65c.52.7,1.26-.2,1.77-2s1.56-5,1.56-5-.58,2.72-1,4.36-1.53,3.76-.59,4.55c.5.42,1.08-.11,1.41-.91s.75-2.14.78-2.27c.31-1.35,1.23-5,1.23-5s-.6,3.1-.94,4.57a13.86,13.86,0,0,0-.65,2.55.7.7,0,0,0,1,.71c.49-.15.92-1.24,1.2-2.4S16.76,95,17,94c.1-.38.27-.76.26-.47,0,.62-.51,2.34-.67,3.2-.2,1.09-.16,1.86.35,1.92.32,0,.6,0,.88-.52a15,15,0,0,0,.86-3c.36-1.65.87-3.16,1.08-4.65s.52-4.51.75-5.5.69-2.29.69-2.29h0c.9-2.79,3.07-9.49,4.48-13.58,1.81-5.25,1.18-7.06,1.45-9.32.18-1.47,1.72-5.15,2.84-9.09,1.69,3.54,3.43,8.75,2.38,13.89-1.82,9-1.25,6.4-1.82,9A75.66,75.66,0,0,0,29,82.3c-.64,6.62-1.13,13.33-.08,19.88.38,2.4,1.77,16.24,1.68,16.72-.32,1.8-1.39,5.57-1.8,7.71s-.2,5.33,0,11.15.9,10.33,1.15,13.53c.21,2.74-.19,9.76-.31,11.69a3.69,3.69,0,0,1-.19,1,18.77,18.77,0,0,1-1.06,2.57,34.83,34.83,0,0,1-3.25,5c-.62.62-1.61,2.1-.68,2.52.33.15.49,0,.49,0a1,1,0,0,0,.39,1.13,1.08,1.08,0,0,0,.53.09,1,1,0,0,0,1.38.82s.24.83.95.86a1.46,1.46,0,0,0,.69-.08c.2-.08.42-.31.66-.88a1,1,0,0,0,.73,1.09,2,2,0,0,0,2.53-1.23c.55-1.17.49-1.38,1-2.39s.25-3.66.58-4.73,1.32-1.44,1.42-2.33a12.92,12.92,0,0,0,0-2.52s.06-4,.06-4l.12-1.79a67,67,0,0,1,1-8.24c.87-4.57,2.08-12.13,2.45-16.72a112.06,112.06,0,0,1,1.39-12.3,1.45,1.45,0,0,0,.06-.19,58.74,58.74,0,0,0,2.54-11.57c.14-1.24.27-2.61.37-4.09.44-6.46.24-10,1.4-10.15,1.16.17.95,3.69,1.4,10.15.1,1.48.23,2.85.37,4.09a58.72,58.72,0,0,0,2.53,11.57,1.3,1.3,0,0,1,.06.19,108.39,108.39,0,0,1,1.4,12.3c.36,4.59,1.58,12.15,2.45,16.72a67,67,0,0,1,1,8.24l.12,1.79s0,4,.06,4a12.92,12.92,0,0,0-.05,2.52c.09.89,1.08,1.26,1.41,2.33s.13,3.71.59,4.73.4,1.22,1,2.39a2,2,0,0,0,2.53,1.23,1,1,0,0,0,.72-1.09c.24.57.47.8.67.88A1.46,1.46,0,0,0,62,177c.71,0,.94-.86.94-.86a1,1,0,0,0,1.38-.82,1.13,1.13,0,0,0,.54-.09,1,1,0,0,0,.38-1.13.46.46,0,0,0,.49,0c.93-.42-.06-1.9-.67-2.52a34,34,0,0,1-3.25-5A18.77,18.77,0,0,1,60.75,164a3.69,3.69,0,0,1-.19-1c-.12-1.93-.52-8.95-.31-11.69.24-3.2,1-7.71,1.15-13.53s.37-9,0-11.15-1.48-5.91-1.81-7.71c-.08-.48,1.31-14.32,1.69-16.72,1-6.55.55-13.26-.09-19.88a73.54,73.54,0,0,0-1.55-8.71c-.57-2.62,0,0-1.83-9-1-5.14.7-10.35,2.39-13.89,1.11,3.94,2.66,7.62,2.84,9.09.27,2.26-.36,4.07,1.45,9.32,1.4,4.09,3.58,10.79,4.47,13.58h0s.47,1.3.7,2.29.53,4,.75,5.5.71,3,1.08,4.65a15,15,0,0,0,.86,3,.81.81,0,0,0,.88.52c.51-.06.55-.83.35-1.92-.16-.86-.65-2.58-.67-3.2,0-.29.15.09.25.47.27,1,.71,3.19,1,4.38s.72,2.25,1.21,2.4a.7.7,0,0,0,1-.71,14.71,14.71,0,0,0-.65-2.55c-.35-1.47-.94-4.57-.94-4.57s.92,3.69,1.23,5c0,.13.44,1.47.77,2.27s.92,1.33,1.42.91c.94-.79-.16-2.9-.59-4.55s-1-4.36-1-4.36,1,3.22,1.57,5,1.25,2.71,1.77,2a3.26,3.26,0,0,0,0-2.65c-.24-.69-.59-2-1-3.16S77.61,89,78,88.89s1.61,2.12,3.38,2.52S83.44,90.44,82.67,89.89Z"/><path class="b" d="M33.82,51.23l.16-.06a1.78,1.78,0,0,0,.43-.17l.27-.15.3-.23a4.48,4.48,0,0,0,.63-.66,10.16,10.16,0,0,0,1.17-2,7.92,7.92,0,0,1,1.61-2.34l.3-.24a1.56,1.56,0,0,1,.17-.12l.15-.09a4.44,4.44,0,0,1,.69-.33,7.13,7.13,0,0,1,1.38-.34c.9-.14,1.71-.19,2.35-.32a4.1,4.1,0,0,0,1.4-.49,3.28,3.28,0,0,0,.42-.31l.78.9h0l-.17.12a2.58,2.58,0,0,1-.47.3,5.22,5.22,0,0,1-1.8.52c-.73.09-1.56.09-2.4.16a7.4,7.4,0,0,0-1.23.23,2.68,2.68,0,0,0-.58.23l-.16.08-.11.07-.26.18a7.37,7.37,0,0,0-1.59,2.06,11.17,11.17,0,0,1-1.35,2,5.45,5.45,0,0,1-.72.67l-.35.23-.33.15a2,2,0,0,1-.46.15l-.16,0a.12.12,0,1,1-.07-.23Z"/><path class="b" d="M43.79,44s-.13.32-.25.4a1.79,1.79,0,0,1-.44-.08c-.17,0-.33,0-.58,0a6.73,6.73,0,0,0-.85,0,15.58,15.58,0,0,1-2.36.17h-.37l-.32-.05c-.2,0-.46-.1-.69-.15a10.8,10.8,0,0,1-1.32-.46l-1.22-.5a12.22,12.22,0,0,0-1.18-.37.92.92,0,0,0-.88.17l-.09.07,0,0,0,0h0l-.06,0-.24.14a2.64,2.64,0,0,1-.51.23,5.19,5.19,0,0,1-.93.27c-.28,0-.51.08-.72.1l-.61,0A.14.14,0,0,1,30,43.9a.14.14,0,0,1,.1-.13l.6-.13.66-.19a4.42,4.42,0,0,0,.79-.33,1.6,1.6,0,0,0,.42-.26l.23-.16,0,0h0l0,0,.13-.11a1.31,1.31,0,0,1,.26-.19l.12-.08,0,0h0l.06,0h0l.11,0a1.57,1.57,0,0,1,.41,0l.35,0a10.3,10.3,0,0,1,1.31.3l1.29.41c.41.14.84.27,1.22.36a4.65,4.65,0,0,0,.58.1l.32,0h.27a19.05,19.05,0,0,0,2.2-.22c.34,0,.67-.06,1-.07a7,7,0,0,1,.83,0,2,2,0,0,1,.45.12c.08.12.05.48.06.47a.11.11,0,0,0-.15.09A.12.12,0,0,0,43.79,44Z"/><path class="c" d="M40.17,28.65c.06.49.12,1,.17,1.4s0,.85,0,1.23c0,.94,0,1.69,0,2.14a2.84,2.84,0,0,1,.93.44c0-.2,0-1.18,0-2.61,0-.4-.07-.84-.1-1.31S41,29,41,28.52s-.23-.94-.28-1.46l-.09-.77a6.07,6.07,0,0,1,.05-.71,7.55,7.55,0,0,1,.31-1.47c.17-.49.34-1,.5-1.43a13.74,13.74,0,0,0,.43-1.38,7,7,0,0,0,.2-1.3A5.65,5.65,0,0,0,42,18.88c0-.17-.08-.33-.11-.47L41.74,18a2.62,2.62,0,0,0-.27-.48l-.1-.16a.21.21,0,0,0-.28-.06.2.2,0,0,0-.07.28l.09.16a2,2,0,0,1,.24.46c0,.1.08.2.12.32s.05.26.08.41a4.26,4.26,0,0,1,0,1,7.12,7.12,0,0,1-.22,1.2,13.11,13.11,0,0,1-.46,1.32l-.55,1.42A8.9,8.9,0,0,0,40,25.49a5.76,5.76,0,0,0-.07.86l.06.77C40,27.64,40.1,28.16,40.17,28.65Z"/><path class="c" d="M48,17.61l-.13.2a2.67,2.67,0,0,0-.27.58,4.46,4.46,0,0,0,0,2.31,9.25,9.25,0,0,0,.48,1.54c.2.53.44,1.1.66,1.72a7,7,0,0,1,.44,2,5.3,5.3,0,0,1,0,1.06c0,.36-.09.71-.16,1l-.08.5c0,.08,0,.18,0,.23l0,.25c0,.3,0,.63,0,1a7.19,7.19,0,0,1-.26,2.06,6.58,6.58,0,0,1-.84,1.77,9.53,9.53,0,0,1-1.11,1.33c-.39.36-.75.69-1.09.95s-.63.49-.89.65l-.8.53a.47.47,0,0,1-.66-.13.48.48,0,0,1,.14-.66h0l.77-.49c.25-.15.52-.37.85-.61s.66-.54,1-.86a8.49,8.49,0,0,0,1-1.18,5.55,5.55,0,0,0,.76-1.52A6.74,6.74,0,0,0,48,30c0-.33,0-.68,0-1.05l0-.26c0-.12,0-.18,0-.27l.11-.5c.07-.34.13-.66.18-1a5.32,5.32,0,0,0,.06-1,6.74,6.74,0,0,0-.35-1.83c-.19-.6-.41-1.17-.61-1.73a9.67,9.67,0,0,1-.44-1.63,5,5,0,0,1,.13-2.56,4.07,4.07,0,0,1,.34-.67l.14-.19a.2.2,0,0,1,.29-.05A.2.2,0,0,1,48,17.61Z"/><path class="c" d="M47.42,39.57c-.28,0-.57,0-.86-.08s-.54,0-.81,0-.56,0-.84,0l-.87,0a9.2,9.2,0,0,1-1.77-.25,5.53,5.53,0,0,1-.86-.31,4,4,0,0,1-.8-.51,3.37,3.37,0,0,1-.63-.69c-.17-.22-.33-.52-.48-.71a1.16,1.16,0,0,0-.24-.29l-.13-.13,0,0s0,0,0,0l-.1,0a1.93,1.93,0,0,0-.69-.27,5.29,5.29,0,0,0-.81-.08h-.83l-1.67,0c-.11,0-.21-.15-.14-.22l0,0a.11.11,0,0,1,.08,0l1.65-.2.87-.07a7.07,7.07,0,0,1,.91.06,2.89,2.89,0,0,1,.9.31l.09.05.08,0,.05,0,.18.17a2.07,2.07,0,0,1,.32.35c.21.26.32.47.51.7a3.11,3.11,0,0,0,.52.56,3.34,3.34,0,0,0,.65.4,4.74,4.74,0,0,0,.75.26,7.11,7.11,0,0,0,1.62.2c.56,0,1.13,0,1.72.08a8.68,8.68,0,0,1,.89.14c.27.07.55.16.82.26a.21.21,0,0,1,.12.27A.22.22,0,0,1,47.42,39.57Z"/><path class="c" d="M34.49,41.32a7.12,7.12,0,0,0,1.06-.72c.3-.18.63-.38,1-.58a4.35,4.35,0,0,1,1.26-.48,4.91,4.91,0,0,1,.68-.06,6.32,6.32,0,0,1,.75.06,7.76,7.76,0,0,1,1.4.42l1.29.55c.44.18.82.37,1.25.5a5.23,5.23,0,0,0,1.14.25,1.77,1.77,0,0,0,.51,0h.25l.23-.05a2.65,2.65,0,0,0,.75-.26,3.36,3.36,0,0,0,.52-.33c.27-.23.38-.42.4-.41a.2.2,0,1,1,.38.14l0,.19a1.61,1.61,0,0,1-.21.51,2.5,2.5,0,0,1-.6.63,2.6,2.6,0,0,1-1,.44l-.3,0h-.31a2.44,2.44,0,0,1-.66,0,4.77,4.77,0,0,1-1.32-.39,11,11,0,0,1-1.22-.64c-.41-.23-.83-.43-1.25-.65A5,5,0,0,0,39.14,40a4.72,4.72,0,0,0-.63-.08,5.14,5.14,0,0,0-.66,0,3.93,3.93,0,0,0-1.11.41c-.35.18-.68.37-1,.54l-.84.48a4.08,4.08,0,0,1-.69.35c-.25.07-.92,0-.92-.14s.23-.09.45-.11A1.75,1.75,0,0,0,34.49,41.32Z"/><path class="c" d="M34.41,39.92c-.55,0-1.32-.65-1.24-.73s.85.29,1.31.32a9.62,9.62,0,0,0,1.59-.12c.37,0,.75-.1,1.12-.12a3.34,3.34,0,0,1,1.28.31c.1.06-.29,0-.35.13a.2.2,0,0,1-.28.07,1.06,1.06,0,0,0-.62-.1c-.36,0-.73.07-1.09.12a10.26,10.26,0,0,1-1.67.12Z"/><path class="c" d="M40.44,35.5l.13.16a2.06,2.06,0,0,0,.15.16l.18.16.67.35.35.23a2.33,2.33,0,0,1,.35.3,2.6,2.6,0,0,1,.32.35l.25.37a4,4,0,0,1,.31.73c0,.1.06.2.09.28l.07.17c-.05,0,.06.08,0,0s0,0-.14,0h0l-.07,0c-.16.14,0,.32,0,.29a.2.2,0,0,1-.07-.28.2.2,0,0,1,.28-.07.24.24,0,0,1,0,.38.2.2,0,0,1-.09.05h0c-.14,0-.13,0-.2,0s0,0-.12-.14l-.11-.25a1.82,1.82,0,0,0-.08-.29,3.68,3.68,0,0,0-.27-.64l-.22-.32a1.86,1.86,0,0,0-.27-.29,1.59,1.59,0,0,0-.3-.27l-.36-.22c-.22-.13-.46-.25-.65-.35a3.46,3.46,0,0,1-.26-.23.9.9,0,0,1-.17-.17l-.13-.15h0a.21.21,0,0,1,0-.3.21.21,0,0,1,.29,0Z"/><path class="c" d="M36.13,37.75c.14,0,.55-.17.7-.21l.94-.22a3.69,3.69,0,0,1,.5-.1l.47,0,.47,0a1.57,1.57,0,0,1,.41.08,1.39,1.39,0,0,1,.34.09l.25.09.22.09a.21.21,0,0,1,.12.27.22.22,0,0,1-.26.12h0l-.2-.07-.23-.09c-.08,0-.19,0-.3-.07s-.24-.06-.36-.06l-.4,0-.47,0a4.3,4.3,0,0,0-.45.08l-.93.21a3.69,3.69,0,0,1-.46.08c-.14,0-.29,0-.42,0s-1-.38-1-.49S36,37.77,36.13,37.75Z"/><path class="c" d="M33.75,39.48l.82-.62a1.85,1.85,0,0,1,1.52-.4l.38,0a4.71,4.71,0,0,0,2.22-.19,3.48,3.48,0,0,0,.47-.24,2.27,2.27,0,0,1,1.16-.42.21.21,0,1,1,0,.41,2.12,2.12,0,0,0-1,.37,4.89,4.89,0,0,1-.51.26,5,5,0,0,1-2.41.22l-.38,0A1.94,1.94,0,0,0,35,39s-1,.52-1.06.54Z"/><path class="c" d="M43.9,42l-.63,0a2.7,2.7,0,0,1-.74,0,9.78,9.78,0,0,1-1-.15,7.48,7.48,0,0,0-1-.2,3.77,3.77,0,0,0-.51,0l-.29.1c-.09,0-.14.1-.22.14a.84.84,0,0,0-.2.18c-.05.07-.14.13-.17.22s-.1.18-.13.22l-.09.33a8.38,8.38,0,0,1-.25,1.37,3.44,3.44,0,0,1-.78,1.22l-.93.95a3.91,3.91,0,0,0-.7.93c-.07.14-.13.36-.19.52s-.09.34-.13.5a5.65,5.65,0,0,1-.29.93,4,4,0,0,1-.41.64c-.34.31-.77.51-.84.42s.5-.4.84-1l0-.11c.09-.25.16-.68.23-1s.08-.36.13-.55a5.08,5.08,0,0,1,.21-.56,4.3,4.3,0,0,1,.76-1.06l.92-.95a3.4,3.4,0,0,0,.39-.5,2.1,2.1,0,0,0,.29-.58,11.69,11.69,0,0,0,.21-1.33l.09-.32c.07-.16.12-.24.19-.37a1.09,1.09,0,0,1,.23-.29,1,1,0,0,1,.29-.26,2.79,2.79,0,0,1,.33-.19l.29-.11a2.55,2.55,0,0,1,.7-.07,8,8,0,0,1,1.14.19,6.76,6.76,0,0,0,.88.12,2.36,2.36,0,0,0,.7,0l.63,0a.3.3,0,0,1,0,.59Z"/><path class="c" d="M33.82,47.18c0-.11.78-.67,1.1-1a3.78,3.78,0,0,1,.95-.72,2.82,2.82,0,0,1,1.18-.23c.12,0,.33,0,.38-.09a.22.22,0,0,1,.29-.07.21.21,0,0,1,.07.29.81.81,0,0,1-.74.28,2.47,2.47,0,0,0-1,.2,3.65,3.65,0,0,0-.85.64A3.47,3.47,0,0,1,33.82,47.18Z"/><path class="c" d="M39.89,52.61h0l-.23,0-.25-.07c-.07-.06-.13,0-.23-.14s-.14-.13-.11-.13L39,52.06l-.07-.23c0-.09-.09-.17-.14-.26a1.9,1.9,0,0,0-.41-.44,3.6,3.6,0,0,0-.5-.29c-.72-.3-1.4-.45-1.92-.63L35,50v.08a.92.92,0,0,0,0,.09.86.86,0,0,0,.13.17,2,2,0,0,0,.68.29c.51.17,1.25.35,1.87.62a2.52,2.52,0,0,1,.43.24,1.6,1.6,0,0,1,.31.33,1.51,1.51,0,0,1,.09.18l.08.23.11.24a.68.68,0,0,0,.16.19,1.3,1.3,0,0,0,.39.25c.12,0,.23.07.31.08l.26.05a.2.2,0,0,0,.24-.17A.21.21,0,0,0,39.89,52.61Z"/><path class="c" d="M35.48,52.55a5.22,5.22,0,0,0,2.5.14c.32-.07.64-.14,1-.19a5,5,0,0,1,.55,0,3.67,3.67,0,0,1,.53.09,3.88,3.88,0,0,1,1,.4c.57.34,1,.68,1.46,1a9.5,9.5,0,0,1,.89.77,1.83,1.83,0,0,1,.19.18s0,0,0,0l-.06,0c-.07,0-.06.1-.07.1a.21.21,0,1,1,.39.15.28.28,0,0,1-.11.13.27.27,0,0,1-.13.05h-.12a1.35,1.35,0,0,1-.41-.12,4.53,4.53,0,0,1-1-.67,7.07,7.07,0,0,0-1.28-1,3.87,3.87,0,0,0-.8-.37,2.32,2.32,0,0,0-.44-.08,3.05,3.05,0,0,0-.43,0c-.31,0-.64.1-1,.15a5.83,5.83,0,0,1-1.93,0,5.44,5.44,0,0,1-.8-.22,4.47,4.47,0,0,1-1.56-1.08A12.5,12.5,0,0,1,35.48,52.55Z"/><path class="c" d="M34.39,62.44l.36-.25.4-.29a5.07,5.07,0,0,0,.52-.37c.35-.31.79-.61,1.21-1l.66-.61.62-.67.32-.33.38-.36a6.75,6.75,0,0,1,.77-.58,6.92,6.92,0,0,1,1.53-.78,5,5,0,0,1,1.21-.3c.31,0,.48,0,.48,0a.48.48,0,0,1,.48.47.47.47,0,0,1-.47.47h0l-.38,0a4.38,4.38,0,0,0-1,.23,6.49,6.49,0,0,0-1.35.67,8,8,0,0,0-.69.5l-.3.28-.35.34-.71.66-.72.58A14.3,14.3,0,0,1,36,62a4.85,4.85,0,0,1-.56.32l-.43.24-.39.21a.21.21,0,0,1-.22-.36Z"/><path class="c" d="M42.87,59l-.09.22v-.2a5.37,5.37,0,0,1-.74.19l-.72.19c-.24.06-.47.16-.7.24A3.92,3.92,0,0,0,40,60c-.1.06-.23.12-.31.18l-.31.23a4.74,4.74,0,0,0-.49.51,3.4,3.4,0,0,0-.4.59,3.28,3.28,0,0,0-.39,1.35,4,4,0,0,1-.08.86,2.19,2.19,0,0,1-.4.77,3.92,3.92,0,0,1-.27.33l-.28.27a3.85,3.85,0,0,1-.6.53,5.81,5.81,0,0,1-.68.46c-.24.13-.46.28-.71.39l-.74.3a.21.21,0,0,1-.17-.38h0l.68-.32c.23-.11.43-.26.65-.39a5.11,5.11,0,0,0,.59-.45,4.43,4.43,0,0,0,.55-.52l.27-.28a3.23,3.23,0,0,0,.23-.27,1.65,1.65,0,0,0,.29-.61,3.5,3.5,0,0,0,0-.69,4.06,4.06,0,0,1,.13-.85,3.5,3.5,0,0,1,.3-.78,4.32,4.32,0,0,1,.46-.71,4.85,4.85,0,0,1,.59-.61l.31-.25c.13-.1.24-.14.36-.22a4.31,4.31,0,0,1,.74-.38c.26-.09.51-.21.77-.28l.8-.15a5.61,5.61,0,0,1,.82,0l0-.2.12.19a.46.46,0,0,1,0,.41Z"/><path class="c" d="M44.24,36.53a4.08,4.08,0,0,0-.25-.85,2.53,2.53,0,0,0-.21-.44L43.65,35l-.07-.11,0-.06h0l0-.06,0,0a5,5,0,0,0-.69-.68,5.78,5.78,0,0,0-.94-.61c-.32-.16-.63-.32-1-.47l-1-.42A14.26,14.26,0,0,0,37.41,32a6.49,6.49,0,0,0-1.34-.12,5.53,5.53,0,0,0-.71,0l-.66.07a9.75,9.75,0,0,0-2.82.89,11,11,0,0,0-2.52,1.72c-.43.39-.71.74-1.08,1.11-.06.06-.11.14-.17.2a7.25,7.25,0,0,0,.57,1,3.67,3.67,0,0,1,.37-.43c.34-.35.72-.77,1-1a9.85,9.85,0,0,1,2.29-1.53A9.07,9.07,0,0,1,34.8,33l.66-.05c.16,0,.4,0,.59,0a6.54,6.54,0,0,1,1.17.12,12.52,12.52,0,0,1,2.15.6l1,.43c.3.12.61.28.88.42A5,5,0,0,1,42,35a3.52,3.52,0,0,1,.58.58h0l0,0,0,.08.08.14a.91.91,0,0,1,.14.3,3.57,3.57,0,0,1,.19.61,9,9,0,0,1,.1,2.05c0,.52-.26,2.18-.26,2.18,0,.2.37-1,.57-.94a.46.46,0,0,0,.57-.31v0s.08-.26.18-.79A6.68,6.68,0,0,0,44.24,36.53Z"/><path class="c" d="M62,36.64a18.18,18.18,0,0,0-2-2.23,13.71,13.71,0,0,0-3.54-1.89,15,15,0,0,0-4-.85l-1,0a7.54,7.54,0,0,0-1.08.07,6.8,6.8,0,0,0-2,.64,8.51,8.51,0,0,0-.92.54c-.28.22-.54.47-.8.71s-.46.6-.66.89-.28.58-.4.88a.43.43,0,0,0,.07.46l.35-.15c.08-.1,1.46-1.18,1.51-1.23l.66-.55c.26-.14.48-.32.74-.44a5.71,5.71,0,0,1,1.65-.54,5.12,5.12,0,0,1,.85-.07l1,0a14.13,14.13,0,0,1,3.6.73,12.59,12.59,0,0,1,3.27,1.71c.82.59.87,1,1.5,1.75C61.31,37.12,61.83,37.05,62,36.64Z"/><path class="c" d="M43.9,67.67a.76.76,0,0,1,0,.29.82.82,0,0,1-.35.52c-.4.38-1,.89-1.65,1.47s-1.5,1.25-2.39,2L38.15,73a11.25,11.25,0,0,0-1.23,1.16A7.19,7.19,0,0,0,36,75.48,5.2,5.2,0,0,0,35.53,77a17.47,17.47,0,0,0,0,3,14.6,14.6,0,0,1,0,2.21,6.21,6.21,0,0,1-.1.62l0,.22A.21.21,0,0,1,35,83v0l0-.2a4.47,4.47,0,0,0,0-.59A14.56,14.56,0,0,0,34.86,80a15.29,15.29,0,0,1-.16-3.14,6.1,6.1,0,0,1,.45-1.8,6.93,6.93,0,0,1,1-1.62,12.72,12.72,0,0,1,1.34-1.31l1.36-1.08c.86-.7,1.66-1.37,2.34-2s1.22-1.08,1.58-1.42a.89.89,0,0,1,.52-.34.83.83,0,0,1,.3,0A.34.34,0,0,1,43.9,67.67Z"/><path class="c" d="M35.54,76.79a1.07,1.07,0,0,1,0,.27,1.38,1.38,0,0,1-.3.53c-.16.19-.34.42-.57.65l-.71.73-.79.62a4.6,4.6,0,0,1-.72.49c-.43.27-.95.45-1,.35s1.26-.92,2-1.71c.22-.23.7-.79.9-1a7.32,7.32,0,0,0,.58-.76c.14-.2-.07-.25.07-.32a1.18,1.18,0,0,1,.26-.09.27.27,0,0,1,.32.23Z"/><path class="c" d="M40,70.67a7.48,7.48,0,0,1-.57.89,8.27,8.27,0,0,1-.92.74c-.34.17-.69.32-1,.47s-.74.17-1.11.23l-1,.07-.52.06a3,3,0,0,0-.49.1,5.74,5.74,0,0,0-1,.29,9.26,9.26,0,0,0-.92.41l-1.15.47.89-.79.22-.2a.21.21,0,0,1,.29,0,.2.2,0,0,1,0,.29l-.22.2-.26-.33a6.32,6.32,0,0,1,.92-.6l.49-.26.53-.18a7.31,7.31,0,0,1,1-.26c.21,0,.36-.05.54-.07l.52,0,.94-.23c.29-.12.57-.28.87-.4a6.19,6.19,0,0,1,.79-.49,6.78,6.78,0,0,1,.84-.66.21.21,0,0,1,.29,0A.21.21,0,0,1,40,70.67Z"/><path class="c" d="M44,36.77a.71.71,0,0,1,.27.18,15.53,15.53,0,0,1-.26,3.51,5.74,5.74,0,0,0,.14,1.6,23.17,23.17,0,0,0,.71,2.55,21.41,21.41,0,0,1,.9,3.58c.05.42.05.68.07,1s0,.75,0,1.13a16.3,16.3,0,0,1-.38,2.27c-.36,1.51-.91,3-1.43,4.55A17.73,17.73,0,0,0,43,61.87a7.87,7.87,0,0,0,0,1.19,7.67,7.67,0,0,0,.17,1.17l0,.14v0c0-.11,0,0,0,0l0,0,0,.08.1.3.22.62a7.52,7.52,0,0,0,.5,1.15c.72,1.49,1.54,3.09,2.3,4.61.19.38.39.75.58,1.12l.29.57.33.5c.21.32.43.7.63,1l.81.93c1.11,1.13,2.27,2.2,3.28,3.36a18.85,18.85,0,0,1,2.45,3.55,9.71,9.71,0,0,1,1,3.53,14.3,14.3,0,0,1-.07,2.78,5.43,5.43,0,0,0,.1,1.69c.11.36.19.79.09.83a6.58,6.58,0,0,1-.71-2.53,14.63,14.63,0,0,0-.05-2.7A9.39,9.39,0,0,0,54,82.52a17.77,17.77,0,0,0-2.43-3.3c-1-1.07-2.18-2.11-3.38-3.28l-.85-.9c-.3-.39-.51-.73-.77-1.1-.13-.18-.26-.36-.38-.55l-.31-.55c-.2-.38-.41-.75-.63-1.13-.81-1.53-1.63-3-2.47-4.62a9.65,9.65,0,0,1-.57-1.23l-.23-.6L41.86,65l0-.07,0,0,0-.08v0l0-.17a8.4,8.4,0,0,1-.23-1.39,9.25,9.25,0,0,1,0-1.39,19.57,19.57,0,0,1,1.09-5.1c.52-1.57,1.08-3,1.43-4.42a15.57,15.57,0,0,0,.35-2c0-.32,0-.61,0-.94s0-.72-.06-1A19.91,19.91,0,0,0,43.54,45a18,18,0,0,1-.63-2.76,7.24,7.24,0,0,1,0-1.92c0-.2,0-.36.11-.46s.33-.12.3-.13Z"/><path class="c" d="M45,70.32a.42.42,0,0,0-.55-.21c-8.18,3.67-9.75,13-11.14,21.24-.17,1-.34,2-.52,3a63,63,0,0,0,.42,12.52c.4,4,2.82,8.21,2.41,12.3l-.47,1.48a26.25,26.25,0,0,1-2.81,6.72c-4.79,10.39-2.71,21.61.51,32.28a7.32,7.32,0,0,0,0-.81,1.42,1.42,0,0,1,.31-.94c-2.91-10.06-4.57-20.52-.14-30.12A26.8,26.8,0,0,0,36,120.9l.48-1.51,0-.09c.42-4.19-2-8.42-2.41-12.52a62.57,62.57,0,0,1-.42-12.31c.18-1,.35-2,.52-3C35.57,83.07,37,74.36,44.81,70.87A.42.42,0,0,0,45,70.32Z"/><path class="c" d="M33.7,163.94c-.1,0,1.45-3.41-.4-10.32l-.22-1c-2.12-9.52-.4-19.36,1.26-28.87l.21-1.18a.4.4,0,0,1,.48-.34.41.41,0,0,1,.33.48l-.2,1.18c-1.65,9.44-3.36,19.19-1.27,28.55l.22,1a18.57,18.57,0,0,1,.27,8.89A5.39,5.39,0,0,1,33.7,163.94Z"/><path class="c" d="M32,163.94c-.2-.13.17-2.93.52-4.15a23.87,23.87,0,0,0,.43-7.95,27.36,27.36,0,0,1,.24-7.33,29.18,29.18,0,0,1,1-3.45,16.51,16.51,0,0,0,1.25-5.47,7.14,7.14,0,0,0-1.31-4.16,7.71,7.71,0,0,1-1.41-4.66.42.42,0,0,1,.42-.41h0a.41.41,0,0,1,.41.42A6.93,6.93,0,0,0,34.9,131a7.91,7.91,0,0,1,1.44,4.59,17.45,17.45,0,0,1-1.29,5.75,27.55,27.55,0,0,0-1,3.36,26.46,26.46,0,0,0-.22,7.11,24.48,24.48,0,0,1-.47,8.21A37.74,37.74,0,0,1,32,163.94Z"/><path class="c" d="M29.39,104c-.2-.1,1.12-3.94,1.19-5.72,0-.51,0-1,0-1.52s0-1,0-1.48A14.1,14.1,0,0,1,35,85.58c.17-.15.72-.73.88-.56s-.14,1-.31,1.17a13.19,13.19,0,0,0-4.12,9.09c0,.48,0,1,0,1.44s0,1,0,1.56C31.33,100.19,29.45,104,29.39,104Z"/><path class="c" d="M37.29,98.86c0-.35.09-.69.15-1a11.25,11.25,0,0,0,.19-1.49c.1-2.33-1.07-4.71-3.7-7.48a.41.41,0,0,1,0-.59.4.4,0,0,1,.58,0c1.76,1.85,4.08,4.71,3.93,8.09,0,.54-.12,1.07-.2,1.59q-.09.5-.15,1c-.11,1,0,3.39-.18,3.44A12.16,12.16,0,0,1,37.29,98.86Z"/><path class="c" d="M36.08,117.92c-1.4.9-3.14,2.28-3.59,4.31a10,10,0,0,0-.15,1.06c0,.22,0,.44-.07.66a16.2,16.2,0,0,0-.48,2.23,8,8,0,0,0,1-2.15c0-.23.06-.46.08-.69a6.38,6.38,0,0,1,.14-1c.31-1.41,1.36-2.65,3.25-3.89A1.4,1.4,0,0,1,36.08,117.92Z"/><path class="c" d="M53.67,117.92c1.4.9,3.14,2.28,3.59,4.31a8,8,0,0,1,.15,1.06c0,.22,0,.44.08.66a14.43,14.43,0,0,1,.47,2.23,8,8,0,0,1-1-2.15c0-.23,0-.46-.08-.69a7.87,7.87,0,0,0-.13-1c-.32-1.41-1.36-2.65-3.26-3.89A1.14,1.14,0,0,0,53.67,117.92Z"/><path class="c" d="M39.11,89.69a11.78,11.78,0,0,1,.25-2,6.25,6.25,0,0,0,.11-2.84,6.73,6.73,0,0,0-1.38-2.27,5.69,5.69,0,0,1-1.61-3.25.41.41,0,0,1,.4-.42.43.43,0,0,1,.43.4,5,5,0,0,0,1.43,2.75,7.47,7.47,0,0,1,1.53,2.57,7.1,7.1,0,0,1-.09,3.21,11.06,11.06,0,0,0-.24,1.84c0,1.46,1.14,4.67.93,4.76C40.82,94.48,39.09,91.32,39.11,89.69Z"/><path class="c" d="M40,87.29,39.79,86a.41.41,0,0,1,.36-.46c.23,0,.16-.83.19-.6l.44,2.27c.18,1.32,1.41,3.75,1.26,3.92A9.23,9.23,0,0,1,40,87.29Z"/><path class="c" d="M56.58,127.72c4.55,9.85,2.74,20.55-.28,30.8a1.87,1.87,0,0,1,.07.49c0,.05,0,.08,0,.1l0,.09c-.09-.23.12.25.12.24.07.14.16.28.24.42,3.26-10.74,5.4-22,.54-32.54a26.53,26.53,0,0,1-2.78-6.67c-.16-.51-.31-1-.47-1.48-.4-4.09,1-8.26,1.42-12.3a63.21,63.21,0,0,0,.41-12.55c-.18-1-.35-2-.52-3-1.32-7.85-2.83-16.68-10-20.67a3.18,3.18,0,0,1,.13,1c6.41,3.91,7.78,12,9.1,19.79.17,1,.34,2,.51,2.94a62.11,62.11,0,0,1-.42,12.35c-.41,4.1-1.83,8.33-1.41,12.52l0,.09c.16.48.32,1,.48,1.51A26.85,26.85,0,0,0,56.58,127.72Z"/><path class="c" d="M55.21,161.51a16.85,16.85,0,0,1,.37-8.07l.22-1c2.09-9.36.39-19.11-1.26-28.55l-.21-1.18a.41.41,0,0,1,.34-.48.4.4,0,0,1,.48.34l.2,1.18c1.67,9.51,3.39,19.35,1.26,28.87l-.22,1c-.65,2.82-1.48,5.79-.43,8.55.2.5.49,1.51.32,1.67A8.76,8.76,0,0,1,55.21,161.51Z"/><path class="c" d="M57,161.76a13.17,13.17,0,0,1-.64-1.75,24.22,24.22,0,0,1-.46-8.21,26.88,26.88,0,0,0-.23-7.11,27.49,27.49,0,0,0-1-3.36,17.2,17.2,0,0,1-1.29-5.75A7.92,7.92,0,0,1,54.79,131a6.86,6.86,0,0,0,1.28-4.21.41.41,0,0,1,.41-.42h0a.41.41,0,0,1,.41.41,7.72,7.72,0,0,1-1.4,4.66,7.07,7.07,0,0,0-1.32,4.16,16.65,16.65,0,0,0,1.25,5.46,28.07,28.07,0,0,1,1,3.46,27,27,0,0,1,.24,7.33,23.61,23.61,0,0,0,.44,7.95,12,12,0,0,0,.77,2,3.25,3.25,0,0,1-.25,2.14C57.6,164,57.29,162.46,57,161.76Z"/><path class="c" d="M57.28,98.28c0-.52,0-1,0-1.56s0-1,0-1.44a13.25,13.25,0,0,0-4.13-9.09c-.17-.16-.7-1.18-.54-1.35s.94.59,1.11.74a14.15,14.15,0,0,1,4.39,9.67c0,.5,0,1,0,1.48s0,1,0,1.52c.08,1.78,1.39,5.62,1.19,5.72S57.36,100.19,57.28,98.28Z"/><path class="c" d="M50.85,102.39s-.16-2.46-.27-3.44c0-.33-.09-.66-.14-1a11.56,11.56,0,0,1-.2-1.58c-.15-3.38,2.17-6.24,3.92-8.09a.41.41,0,0,1,.59,0,.42.42,0,0,1,0,.59C52.14,91.62,51,94,51.07,96.33a13.14,13.14,0,0,0,.18,1.49c.06.34.12.69.16,1A8.51,8.51,0,0,1,50.85,102.39Z"/><path class="c" d="M47.82,94.46c-.21-.09,1-3.3.94-4.76a11.06,11.06,0,0,0-.24-1.84,7,7,0,0,1-.1-3.21A7.5,7.5,0,0,1,50,82.08a7.58,7.58,0,0,0,1.45-3.59c0-.23.17.43.4.44a.41.41,0,0,1,.4.42,5.73,5.73,0,0,1-1.6,3.25,6.76,6.76,0,0,0-1.39,2.27,6.4,6.4,0,0,0,.11,2.84,11.78,11.78,0,0,1,.25,2C49.61,91.32,47.88,94.48,47.82,94.46Z"/><path class="c" d="M47,91.24c-.11,0,.78-2.73.95-4l.46-2.31c0-.23-.06.6.17.64a.41.41,0,0,1,.36.46l-.17,1.31A11.26,11.26,0,0,1,47,91.24Z"/><path class="c" d="M50.64,60.89a11.37,11.37,0,0,1-1-1.07c-.21-.25-.42-.5-.65-.73a6.41,6.41,0,0,0-5.32-1.81.41.41,0,0,1-.47-.35.42.42,0,0,1,.35-.47,7.27,7.27,0,0,1,6,2,10,10,0,0,1,.69.77,9.85,9.85,0,0,0,.93,1c1.1.95,4.35,1.92,4.3,2.14A9.52,9.52,0,0,1,50.64,60.89Z"/><path class="c" d="M51.26,58.2c-.26,0-.53,0-.79,0-.83,0-1.66-.13-2.48-.22a.42.42,0,0,1,.09-.83c.82.1,1.63.17,2.44.23a5.06,5.06,0,0,0,1.67-.08,5.54,5.54,0,0,0,1.19-.56c.69-.39,2.65-.46,2.63-.24s-1.27.17-2.23,1a3.74,3.74,0,0,1-1.37.63A4.42,4.42,0,0,1,51.26,58.2Z"/><path class="c" d="M55.09,70.77a6.56,6.56,0,0,1-.35-.89,6.08,6.08,0,0,0-.32-.82,5.5,5.5,0,0,0-2.27-2c-.85-.5-1.72-1-2.59-1.43a30.17,30.17,0,0,1-7.19-4.82.41.41,0,0,1,0-.59.42.42,0,0,1,.59,0,29.49,29.49,0,0,0,7,4.68c.87.47,1.75.94,2.6,1.44a6.28,6.28,0,0,1,2.6,2.34,10,10,0,0,1,.37.93,5.64,5.64,0,0,0,.3.79c.26.51,1.45,1.59,1.34,1.79A4,4,0,0,1,55.09,70.77Z"/><path class="c" d="M54.65,67.08a9.92,9.92,0,0,0-1.13-.63,10.58,10.58,0,0,0-3.16-.7.43.43,0,0,1-.36-.47c0-.22-.6-.4-.37-.36a17.1,17.1,0,0,1,4.23.78,9.39,9.39,0,0,1,1.21.67s2.26,1.59,2.14,1.79A17.53,17.53,0,0,1,54.65,67.08Z"/><path class="c" d="M50.92,68.15a11.48,11.48,0,0,1-1.34-1.44c-.15-.23-.91-1.16-1.08-1.41a2,2,0,0,0-1.13-.85.42.42,0,0,1,.17-.82,2.7,2.7,0,0,1,1.63,1.19,8.25,8.25,0,0,1,.53.86c.12.22.24.44.38.66a12.43,12.43,0,0,0,1.12,1.34c.5.53,1.43,2.2,1.23,2.31S51.41,68.67,50.92,68.15Z"/><path class="c" d="M57.76,78.41a17.62,17.62,0,0,1-2.43-1.22L55,77a19.58,19.58,0,0,0-2.3-1.36A7.48,7.48,0,0,0,51.24,75a10,10,0,0,0-1.61-.26A6.39,6.39,0,0,1,46.84,74a.41.41,0,0,1-.14-.57.42.42,0,0,1,.57-.14,5.68,5.68,0,0,0,2.45.61,10.67,10.67,0,0,1,1.74.28,8.35,8.35,0,0,1,1.65.67A21.19,21.19,0,0,1,55.5,76.3l.3.21C56.48,77,58,78.41,57.76,78.41Z"/><path class="c" d="M54.89,74.93c-.28,0-.55,0-.82.07l-.57.06a8.58,8.58,0,0,1-1.68,0,.43.43,0,0,1-.36-.47c0-.22-.73-.5-.49-.46a20.17,20.17,0,0,0,2.46.13l.54,0a8.91,8.91,0,0,1,.89-.08c1.35,0,4,1.7,3.8,1.88S56,74.89,54.89,74.93Z"/><path class="b" d="M40.55,13.32s-.06.29-.18.81c-.06.26-.08.58-.14.93s-.06.77-.1,1.22,0,.93,0,1.44a13,13,0,0,0,.21,1.58A13.16,13.16,0,0,0,40.85,21a17.31,17.31,0,0,0,.67,1.65,18.08,18.08,0,0,1,.65,1.75,11.26,11.26,0,0,1,.33,1.75,14.75,14.75,0,0,1,.12,1.69c0,.53,0,1,0,1.48s0,.88,0,1.23a6.82,6.82,0,0,0,.08.89,1,1,0,0,1,0,.58,1.33,1.33,0,0,1-.14.26h0a.2.2,0,0,1-.23.07.8.8,0,0,1-.24-.16.9.9,0,0,1-.27-.62,9,9,0,0,1-.08-1c0-.4,0-.8,0-1.26s0-.94,0-1.45,0-1.06-.09-1.59a10,10,0,0,0-.31-1.68c-.13-.53-.38-1.1-.56-1.66s-.47-1.12-.62-1.72a12.69,12.69,0,0,1-.42-1.75,12.18,12.18,0,0,1-.15-1.66,14.25,14.25,0,0,1,.05-1.5A12.48,12.48,0,0,1,39.85,15a8.55,8.55,0,0,1,.22-.95l.24-.79a.13.13,0,0,1,.16-.09A.13.13,0,0,1,40.55,13.32Z"/><path class="b" d="M49.84,13.74s0,.33,0,.92c0,.3,0,.65,0,1.06a10,10,0,0,1-.09,1.38c0,.51-.11,1.06-.17,1.64s-.2,1.17-.31,1.8a16.82,16.82,0,0,1-.4,1.92c-.17.64-.35,1.3-.52,2l-.6,1.91c-.18.63-.31,1.25-.47,1.85l-.11.44c0,.1,0,.29,0,.43,0,.3-.06.6-.09.88,0,.58,0,1.08,0,1.56s.12.91.15,1.3a5.78,5.78,0,0,0,.18,1c.17.53.94,4.2.94,4.2s-.64-.65-.72-.69-1-2.69-1.09-3.29A5.73,5.73,0,0,1,46.17,33,13,13,0,0,1,46,31.53a16.77,16.77,0,0,1,.06-1.71c0-.28.09-.58.13-.88s0-.27.08-.48l.13-.46c.18-.62.35-1.27.56-1.9s.44-1.26.67-1.89l.57-1.91a16.5,16.5,0,0,0,.47-1.87c.13-.61.3-1.2.37-1.76s.16-1.11.24-1.6a12.25,12.25,0,0,0,.15-1.36c0-.41.06-.77.08-1.06,0-.59.07-.93.07-.93a.14.14,0,0,1,.14-.11A.13.13,0,0,1,49.84,13.74Z"/><path class="b" d="M47.44,35.53a15,15,0,0,0-6.2-3.9,13.34,13.34,0,0,0-5.74-1.05,10.19,10.19,0,0,0-3.38,1,16.56,16.56,0,0,0-4.5,3.22s0,0,0,0c.13.26.26.51.38.77a15.9,15.9,0,0,1,4.47-3.28,9.26,9.26,0,0,1,3.1-.93,12.44,12.44,0,0,1,5.38,1c1.86.68,4.4,3,6.25,5.59a1.44,1.44,0,0,1,.74-.58l.24-.07h.09A12.82,12.82,0,0,0,47.44,35.53Z"/><path class="b" d="M62.51,35.63c-1.38-1.36-2.75-3.26-4.4-4.05a10.12,10.12,0,0,0-3.38-1A13.31,13.31,0,0,0,49,31.63a21.28,21.28,0,0,0-4.1,1.9.42.42,0,0,0-.13.57.43.43,0,0,0,.58.13,20.77,20.77,0,0,1,3.93-1.82,12.44,12.44,0,0,1,5.38-1,9.31,9.31,0,0,1,3.11.93c1.6.77,2.93,2.65,4.27,4A6.54,6.54,0,0,1,62.51,35.63Z"/><path class="b" d="M37.23,48a1.85,1.85,0,0,1-.55.53,16.6,16.6,0,0,1,0,2l-.06.37c0,.06,0,.14,0,.18l-.06.19a3.22,3.22,0,0,1-.28.68,4,4,0,0,1-.38.57c-.14.18-.29.33-.42.47a5,5,0,0,1-.42.33,2.31,2.31,0,0,1-.35.21l-.32.16h0a.12.12,0,0,0-.06.16.13.13,0,0,0,.16.07l.36-.15a4.45,4.45,0,0,0,.87-.52,5.39,5.39,0,0,0,.5-.47,4.3,4.3,0,0,0,.45-.62,3.91,3.91,0,0,0,.35-.75L37,51.2c0-.09,0-.15,0-.22l.08-.42a11.28,11.28,0,0,0,.06-1.62C37.21,48.59,37.22,48.28,37.23,48Z"/><path class="b" d="M30.39,45.05l.59-.24a5.94,5.94,0,0,0,.58-.27l.63-.35.28-.23a.92.92,0,0,0,.23-.26,1.06,1.06,0,0,0,.19-.24l.13-.25a1.36,1.36,0,0,0,.13-.39.34.34,0,0,1,.13-.14h0a.18.18,0,0,1,.22,0,.28.28,0,0,1,0,.2,1.47,1.47,0,0,1-.17.48l-.17.3A1.53,1.53,0,0,1,33,44a1,1,0,0,1-.28.27l-.31.25-.69.36a1.81,1.81,0,0,1-.33.14l-.29.1-.61.18a.12.12,0,0,1-.16-.08A.12.12,0,0,1,30.39,45.05Z"/><path class="b" d="M46.78,48c0,.67.06,1.45,0,1.68h0s-.08,1.24-.21,3.1c0,.47-.07,1-.08,1.51s0,1.11,0,1.7,0,1.2-.05,1.82,0,1.24,0,1.86,0,1.23,0,1.81l-.06.88c0,.28-.09.55-.14.82l-.07.41,0,.17-.06.2a5.78,5.78,0,0,1-.25.74,3.73,3.73,0,0,1-.3.64,3.18,3.18,0,0,1-.34.57,2.2,2.2,0,0,1-.28.38,2.4,2.4,0,0,1,.89.71,3.57,3.57,0,0,0,.34-.43,6.25,6.25,0,0,0,.43-.66c.13-.24.26-.49.38-.77a5.73,5.73,0,0,0,.3-.81l.07-.2a2.07,2.07,0,0,0,.06-.24l.09-.45c.06-.3.14-.61.19-.92l.09-.94c.08-.64.07-1.26.11-1.9s0-1.25.05-1.85S48,56.6,48,56s.06-1.13.09-1.66.08-1,.11-1.5c.16-1.86.26-3.1.26-3.1a8.8,8.8,0,0,0,0-1.57C47.91,48.11,47.2,48.33,46.78,48Z"/><path class="b" d="M46.43,66.06a7,7,0,0,1-.49.73l-.58.65-.93,1-1.14,1.44c-.45.53-.87,1.18-1.35,1.86a26,26,0,0,0-1.44,2.29c-.53.81-.94,1.76-1.44,2.72-.26.48-.43,1-.66,1.53s-.45,1.06-.63,1.62a30.44,30.44,0,0,0-1,3.57c-.11.62-.31,1.26-.37,1.9s-.21,1.35-.24,2a52.87,52.87,0,0,0,.09,8.6c.23,3,.63,6.1.83,9.29a37,37,0,0,1-.42,9.72c-.64,3.26-.14,6.19-1,9.18-.2.72-.35,1.53-.52,2.29s-.21,1.51-.29,2.27-.11,1.53-.14,2.29,0,1.52,0,2.27c0,3,.08,5.95-.17,8.75s-.77,5.37-1.12,7.75a32.88,32.88,0,0,0-.43,6.5c.18,1.95.32,3.67.34,5.11s.52,2.56.11,3.21a4.45,4.45,0,0,1-.56.69l-.22.2a6.37,6.37,0,0,0,.55-1c.27-.68-.46-1.73-.44-3.11s-.19-3.08-.39-5a33.08,33.08,0,0,1,.37-6.65c.33-2.42.81-5,1-7.72s.1-5.65.08-8.68c0-.76,0-1.53,0-2.3s.08-1.55.12-2.34.18-1.58.28-2.38.3-1.53.51-2.34a74,74,0,0,0,.81-8c0-.77.16-1.53.27-2.29a41,41,0,0,0,.16-8.29c-.22-3.14-.62-6.24-.87-9.27A53.19,53.19,0,0,1,35,87.3c0-.72.16-1.38.23-2s.26-1.34.38-2a35,35,0,0,1,1-3.7c.19-.59.44-1.14.65-1.69s.41-1.09.68-1.58c.51-1,.93-2,1.47-2.82s1-1.68,1.48-2.37.92-1.38,1.39-1.94l1.19-1.51.93-1,.94-1.07c.15-.13,0,.34,0,.34C45.66,66,46.33,65.8,46.43,66.06Z"/><path class="b" d="M36.09,85.39s-.11.14-.31.35a2.94,2.94,0,0,0-.33.41,3.52,3.52,0,0,0-.38.55A16.66,16.66,0,0,0,33.51,90,20.78,20.78,0,0,1,32,93.46a6.44,6.44,0,0,1-.71,1l-.3.37a.14.14,0,0,1-.18,0,.12.12,0,0,1,0-.17h0l.29-.36a7.49,7.49,0,0,0,.65-1,22.88,22.88,0,0,0,1.41-3.42,13.61,13.61,0,0,1,1.57-3.42,5,5,0,0,1,.84-1c.22-.2.35-.3.35-.3a.12.12,0,0,1,.18,0A.14.14,0,0,1,36.09,85.39Z"/><path class="b" d="M36.05,85.53l0,.17a1.47,1.47,0,0,0-.07.45,3.58,3.58,0,0,0,.34,1.58c.12.34.3.67.49,1.07l.57,1.2.6,1.28c.21.44.42.91.59,1.37a8,8,0,0,1,.4,1.45A6.55,6.55,0,0,1,39,95.55c0,.46,0,.9,0,1.32a10.22,10.22,0,0,0,.1,1.17,5.36,5.36,0,0,0,.24.94,4.26,4.26,0,0,0,.27.71l.3.59v0a.12.12,0,0,1,0,.16.13.13,0,0,1-.17,0l-.33-.6a5.93,5.93,0,0,1-.31-.73,6.81,6.81,0,0,1-.27-1,8.65,8.65,0,0,1-.13-1.2c0-.42,0-.87,0-1.33a6.33,6.33,0,0,0-.1-1.38,6.79,6.79,0,0,0-.42-1.35,14.36,14.36,0,0,0-.6-1.32l-.64-1.27L36.26,89c-.19-.35-.39-.72-.54-1.07a6,6,0,0,1-.34-1,3.36,3.36,0,0,1-.08-.86,2,2,0,0,1,.07-.54l0-.17a.33.33,0,0,1,.65.13Z"/><path class="b" d="M36.11,99.29a.59.59,0,0,1,0,.24,1.92,1.92,0,0,1-.17.57c-.19.47-.45,1.15-.76,2-.16.41-.32.86-.52,1.31l-.59,1.45c-.2.5-.38,1-.55,1.56s-.3,1.09-.41,1.65a9.55,9.55,0,0,0-.16,1.68c0,.54,0,1.12.08,1.66a10.54,10.54,0,0,1,0,1.58,9.81,9.81,0,0,1-.21,1.43,14.58,14.58,0,0,1-.62,2l-.32.74a.12.12,0,1,1-.23-.09h0l.28-.74a12.32,12.32,0,0,0,.53-2,9.57,9.57,0,0,0,.15-1.37c0-.23,0-.5,0-.76l-.06-.79c0-.54-.13-1.08-.12-1.68a9.59,9.59,0,0,1,.13-1.77,13.88,13.88,0,0,1,.4-1.72c.17-.55.36-1.09.56-1.6s.4-1,.59-1.47.34-.9.5-1.31l.75-2a1.61,1.61,0,0,1,.25-.54.44.44,0,0,1,.19-.14A.18.18,0,0,1,36.11,99.29Z"/><path class="b" d="M35,126s-.08.23-.26.63-.44,1-.78,1.6a21.45,21.45,0,0,0-1,2.23,7.76,7.76,0,0,0-.52,2.7c0,1,0,1.94,0,2.86a10.24,10.24,0,0,1-.39,2.5,5.91,5.91,0,0,1-.39.94,5.28,5.28,0,0,1-.42.67c-.12.18-.57.58-.62.53s.65-1.07.77-1.33a4.81,4.81,0,0,0,.34-.91A9.22,9.22,0,0,0,32,136c0-.9-.05-1.86-.06-2.85a8.38,8.38,0,0,1,.46-2.89,23.42,23.42,0,0,1,1-2.32c.32-.66.56-1.21.71-1.59s.24-.62.24-.62a.37.37,0,0,1,.48-.23A.38.38,0,0,1,35,126h0Z"/><path class="b" d="M34.72,135l.1,0a1.79,1.79,0,0,1,.81.42,2,2,0,0,1,.44.54,2.47,2.47,0,0,1,.32.72,2.75,2.75,0,0,1,.13.88,4.49,4.49,0,0,1-.07.87,5.24,5.24,0,0,1-.2.91c-.16.58-.35,1.13-.51,1.67-.08.26-.12.52-.19.76a6.69,6.69,0,0,0-.12.69c-.1.75-.08,1.6-.15,1.6s-.14-.27-.16-.53l0-.48c0-.19,0-.39,0-.62a3.93,3.93,0,0,1,.09-.73c0-.25.09-.53.16-.79.13-.54.3-1.13.43-1.69a5.2,5.2,0,0,0,.15-.83,3.8,3.8,0,0,0,0-.83,2,2,0,0,0-.14-.7,2.16,2.16,0,0,0-.28-.57,1.63,1.63,0,0,0-.35-.38,1,1,0,0,0-.28-.18c-.06-.05-.21-.05-.26-.07l-.11,0a.34.34,0,0,1,.14-.67Z"/><path class="b" d="M33.56,146.59s.07.07,0,.12l-.13.19-.19.31a3.09,3.09,0,0,1-.31.39c-.23.29-.51.57-.81.88l-.41.49a4.65,4.65,0,0,0-.37.57,4.84,4.84,0,0,0-.45,1.2c-.06.2-.06.41-.1.6s0,.45,0,.62a10,10,0,0,1,0,1.18c-.06,0-.16-.21-.21-.41a5.09,5.09,0,0,1-.1-.85,5.75,5.75,0,0,1,0-.58,3.54,3.54,0,0,1,.09-.63,5.43,5.43,0,0,1,.47-1.33c.12-.22.23-.39.37-.6s.29-.36.44-.53c.28-.32.57-.62.76-.87a2.15,2.15,0,0,0,.28-.35l.19-.31.12-.2s.13,0,.12,0A.45.45,0,0,1,33.56,146.59Z"/><path class="b" d="M31.64,160.75a8.6,8.6,0,0,0,.11-2.23,7.9,7.9,0,0,1,.41-2.17c.2-.57.34-.94.34-.94a.13.13,0,0,1,.17-.07.12.12,0,0,1,.07.16s-.14.37-.33.93a7.29,7.29,0,0,0-.38,2.09,7.91,7.91,0,0,1-.21,2.2,1.64,1.64,0,0,1-.41.67c-.16.14-.4.19-.44.12A1.25,1.25,0,0,0,31.64,160.75Z"/><path class="b" d="M36.14,101.06l1,1.21a15,15,0,0,1,1,1.31,5.47,5.47,0,0,1,.71,1.76,5.29,5.29,0,0,1,.1,1c0,.32,0,.63,0,.92a12.62,12.62,0,0,0-.06,1.57,2.8,2.8,0,0,0,.06.61,1.62,1.62,0,0,0,.12.45l.16.37v0a.12.12,0,0,1-.07.16.11.11,0,0,1-.15-.06l-.2-.41a2.14,2.14,0,0,1-.14-.48,4,4,0,0,1-.1-.65,14.53,14.53,0,0,1,0-1.61c0-.29,0-.58,0-.87a4.92,4.92,0,0,0-.11-.89,5.05,5.05,0,0,0-.72-1.58,12.29,12.29,0,0,0-1-1.23l-1-1.17a.3.3,0,1,1,.45-.4Z"/><path class="b" d="M35.4,94.63a.18.18,0,0,1,.12.09,1.33,1.33,0,0,1,0,.32,3.85,3.85,0,0,1-.24,1,7.6,7.6,0,0,1-.64,1.33,3.64,3.64,0,0,1-.24.35l-.26.32a6.76,6.76,0,0,1-.58.62L33,99.3c-.19.18-.34.39-.52.59a6.8,6.8,0,0,0-.43.6,3.81,3.81,0,0,0-.34.56,6.23,6.23,0,0,0-.43.89l-.15.35h0a.11.11,0,0,1-.16.07.14.14,0,0,1-.07-.16l.14-.36a7.13,7.13,0,0,1,.39-.95,6.24,6.24,0,0,1,.33-.61c.14-.2.27-.44.44-.64s.32-.43.52-.63.38-.41.57-.61.37-.38.55-.6l.25-.32a2.23,2.23,0,0,0,.2-.3,6.92,6.92,0,0,0,.59-1.25,3.2,3.2,0,0,0,.21-.92,1.55,1.55,0,0,0,0-.23c0-.07.1-.12.09-.12A.37.37,0,0,1,35.4,94.63Z"/><path class="b" d="M37.79,128.15l-.14-.35a8,8,0,0,1-.33-.94,4,4,0,0,1-.15-.64,5.15,5.15,0,0,1-.12-.72,7,7,0,0,1,0-.79c0-.27,0-.55,0-.83a8.24,8.24,0,0,0,0-.86l0-.4c0-.16-.05-.28-.08-.42a16.3,16.3,0,0,0-.8-2c-.1.14.12.9,0,1h0a6.52,6.52,0,0,1,.36,1,2.53,2.53,0,0,1,.07.36l.05.41c0,.27,0,.53,0,.8s0,.56,0,.84a7.12,7.12,0,0,0,.08.82,6.22,6.22,0,0,0,.15.75,3.79,3.79,0,0,0,.2.67,7.53,7.53,0,0,0,.39,1l.16.35a.13.13,0,0,0,.16.06.14.14,0,0,0,.07-.16Z"/><path class="b" d="M52,128.15l.14-.35a8,8,0,0,0,.33-.94,4,4,0,0,0,.15-.64,5.15,5.15,0,0,0,.12-.72c0-.27.06-.52.06-.79v-.83a8.24,8.24,0,0,1,0-.86l0-.4c0-.16,0-.28.08-.42a8.81,8.81,0,0,1,.47-1.35,4.71,4.71,0,0,0,.33.42h0a7.72,7.72,0,0,0-.36,1,2.53,2.53,0,0,0-.07.36l-.05.41c0,.27,0,.53,0,.8s0,.56,0,.84a7.12,7.12,0,0,1-.08.82,4.74,4.74,0,0,1-.15.75,4.91,4.91,0,0,1-.19.67,7.35,7.35,0,0,1-.4,1l-.16.35a.13.13,0,0,1-.16.06.14.14,0,0,1-.07-.16Z"/><path class="b" d="M40.29,74.09l-.12.41a2.91,2.91,0,0,0,0,1,3,3,0,0,0,.18.67,4.66,4.66,0,0,0,.35.71c.14.24.33.45.52.71s.4.46.59.69.42.48.61.73a7,7,0,0,1,.52.77,3.37,3.37,0,0,1,.35.81,3.28,3.28,0,0,1,.16.78,3,3,0,0,1,0,.67,4,4,0,0,1-.11.51l-.18.41A.13.13,0,0,1,43,83a.12.12,0,0,1-.06-.16v0l.14-.38a3.93,3.93,0,0,0,.08-.46,3.23,3.23,0,0,0,0-.61,4,4,0,0,0-.18-.7,3.65,3.65,0,0,0-.35-.72,6.66,6.66,0,0,0-.52-.7c-.19-.23-.41-.45-.62-.68s-.45-.46-.65-.7-.41-.46-.58-.72a5.55,5.55,0,0,1-.43-.79,4.05,4.05,0,0,1-.25-.77,3.53,3.53,0,0,1,0-1.28l.11-.41a.33.33,0,0,1,.41-.25.35.35,0,0,1,.25.41Z"/><path class="b" d="M56.69,164.53c-.27-.68.46-1.73.44-3.11s.19-3.08.39-5a33.08,33.08,0,0,0-.37-6.65c-.33-2.42-.81-5-1-7.72s-.1-5.65-.08-8.68c0-.76,0-1.53,0-2.3s-.08-1.55-.12-2.34-.18-1.58-.28-2.38-.3-1.53-.51-2.34c-.44-1.56-1.57-7.69-1.57-7.69l-.06-.29-.25-1.15a37,37,0,0,1-.36-9.46c.22-3.14.62-6.24.87-9.27a53.19,53.19,0,0,0,.12-8.81c0-.72-.16-1.38-.23-2s-.26-1.34-.38-2a35,35,0,0,0-1-3.7c-.19-.59-.44-1.14-.65-1.69s-.41-1.09-.68-1.58c-.51-1-.93-2-1.47-2.82s-1-1.68-1.48-2.37-.92-1.38-1.39-1.94-.84-1.07-1.19-1.51l-.93-1c-.18-.21-.52-.6-.75-.85a2.53,2.53,0,0,1-.81.94l.06.09.58.65.93,1,1.14,1.44c.45.53.86,1.18,1.35,1.86a26,26,0,0,1,1.44,2.29c.53.81.94,1.76,1.44,2.72.26.48.43,1,.66,1.53s.45,1.06.63,1.62a30.44,30.44,0,0,1,1,3.57c.11.62.31,1.26.37,1.9s.21,1.35.24,2a54,54,0,0,1-.09,8.6c-.23,3-.63,6.1-.83,9.29a37,37,0,0,0,.42,9.72c.64,3.26,1.13,6.19,2,9.18.19.72.35,1.53.52,2.29s.21,1.51.29,2.27.11,1.53.14,2.29,0,1.52,0,2.27c0,3-.08,5.95.17,8.75s.77,5.37,1.12,7.75a32.88,32.88,0,0,1,.43,6.5c-.19,1.95-.32,3.67-.34,5.11s-.52,2.56-.11,3.21a3.93,3.93,0,0,0,.56.69l.22.2A5.49,5.49,0,0,1,56.69,164.53Z"/><path class="b" d="M52.79,85.39s.11.14.31.35a2.94,2.94,0,0,1,.33.41,4.36,4.36,0,0,1,.38.55A16.66,16.66,0,0,1,55.37,90a21.68,21.68,0,0,0,1.5,3.44,7.11,7.11,0,0,0,.72,1l.3.37a.14.14,0,0,0,.18,0,.12.12,0,0,0,0-.17h0l-.29-.36a7.49,7.49,0,0,1-.65-1,22.88,22.88,0,0,1-1.41-3.42,13.61,13.61,0,0,0-1.57-3.42,5.33,5.33,0,0,0-.84-1c-.22-.2-.35-.3-.35-.3a.12.12,0,0,0-.18,0A.12.12,0,0,0,52.79,85.39Z"/><path class="b" d="M52.83,85.53l0,.17a1.47,1.47,0,0,1,.07.45,3.58,3.58,0,0,1-.34,1.58c-.13.34-.3.67-.5,1.07s-.36.78-.56,1.2-.4.85-.6,1.28-.42.91-.59,1.37A8,8,0,0,0,50,94.1a6.55,6.55,0,0,0-.07,1.45c0,.46,0,.9,0,1.32a10.22,10.22,0,0,1-.1,1.17,5.36,5.36,0,0,1-.24.94,4.26,4.26,0,0,1-.27.71l-.3.59v0a.12.12,0,0,0,.05.16.13.13,0,0,0,.17,0l.33-.6a5.93,5.93,0,0,0,.31-.73,6.81,6.81,0,0,0,.27-1,8.65,8.65,0,0,0,.13-1.2c0-.42,0-.87,0-1.33a6.33,6.33,0,0,1,.1-1.38,6.79,6.79,0,0,1,.42-1.35,14.36,14.36,0,0,1,.6-1.32L52,90.23l.6-1.19c.18-.35.39-.72.54-1.07a7.06,7.06,0,0,0,.34-1,3.36,3.36,0,0,0,.08-.86,2,2,0,0,0-.07-.54l0-.17a.33.33,0,0,0-.65.13Z"/><path class="b" d="M52.76,99.29a.5.5,0,0,0,0,.24,1.66,1.66,0,0,0,.17.57c.18.47.45,1.15.76,2,.16.41.32.86.52,1.31s.38.95.59,1.45.38,1,.55,1.56.3,1.09.41,1.65a9.55,9.55,0,0,1,.16,1.68c0,.54-.05,1.12-.08,1.66a10.54,10.54,0,0,0,0,1.58,9.81,9.81,0,0,0,.21,1.43,14.58,14.58,0,0,0,.62,2l.32.74a.12.12,0,1,0,.23-.09h0s-.11-.27-.28-.74a11.37,11.37,0,0,1-.53-2,8.33,8.33,0,0,1-.15-1.37c0-.23,0-.5,0-.76l.06-.79c0-.54.12-1.08.12-1.68a9.59,9.59,0,0,0-.13-1.77,16,16,0,0,0-.4-1.72c-.18-.55-.36-1.09-.56-1.6s-.4-1-.59-1.47-.35-.9-.5-1.31l-.75-2a1.83,1.83,0,0,0-.25-.54A.44.44,0,0,0,53,99.2.2.2,0,0,0,52.76,99.29Z"/><path class="b" d="M54.89,126s.08.23.26.63.44,1,.78,1.6a21.45,21.45,0,0,1,1,2.23,8,8,0,0,1,.52,2.7c0,1,0,1.94,0,2.86a9.36,9.36,0,0,0,.39,2.5,5.91,5.91,0,0,0,.39.94,5.28,5.28,0,0,0,.42.67c.12.18.57.58.62.53s-.65-1.07-.78-1.33a5.63,5.63,0,0,1-.33-.91,9.64,9.64,0,0,1-.3-2.42c0-.9.06-1.86.07-2.85a8.38,8.38,0,0,0-.46-2.89,23.42,23.42,0,0,0-1-2.32c-.32-.66-.56-1.21-.71-1.59s-.24-.62-.24-.62a.37.37,0,0,0-.48-.23.38.38,0,0,0-.23.48h0Z"/><path class="b" d="M55.16,135l-.1,0a1.47,1.47,0,0,0-.31.1,1.7,1.7,0,0,0-.5.32,2,2,0,0,0-.44.54,2.47,2.47,0,0,0-.32.72,2.5,2.5,0,0,0-.13.88,3.82,3.82,0,0,0,.07.87,5.24,5.24,0,0,0,.2.91c.16.58.35,1.13.5,1.67.09.26.13.52.2.76a6.69,6.69,0,0,1,.12.69c.1.75.08,1.6.15,1.6s.14-.27.16-.53,0-.3,0-.48,0-.39,0-.62a3.93,3.93,0,0,0-.09-.73c-.06-.25-.09-.53-.17-.79-.12-.54-.29-1.13-.42-1.69a5.2,5.2,0,0,1-.15-.83,3.8,3.8,0,0,1,0-.83,2,2,0,0,1,.14-.7,2.16,2.16,0,0,1,.28-.57,1.85,1.85,0,0,1,.34-.38,1.14,1.14,0,0,1,.29-.18c.06-.05.21-.05.26-.07l.11,0a.34.34,0,0,0-.14-.67Z"/><path class="b" d="M56.32,146.59s-.07.07,0,.12l.13.19c.05.09.11.19.19.31a3.09,3.09,0,0,0,.31.39c.23.29.51.57.81.88l.41.49a3.67,3.67,0,0,1,.36.57,5.34,5.34,0,0,1,.56,1.8c0,.19,0,.45.05.62a10,10,0,0,0,0,1.18c.06,0,.16-.21.21-.41a5.09,5.09,0,0,0,.1-.85,5.75,5.75,0,0,0,0-.58,3.54,3.54,0,0,0-.09-.63,5.43,5.43,0,0,0-.47-1.33c-.12-.22-.23-.39-.37-.6l-.44-.53c-.28-.32-.57-.62-.77-.87A2.74,2.74,0,0,1,57,147l-.19-.31-.12-.2s-.13,0-.12,0A.45.45,0,0,0,56.32,146.59Z"/><path class="b" d="M58.24,160.75a8.6,8.6,0,0,1-.11-2.23,7.9,7.9,0,0,0-.41-2.17c-.2-.57-.34-.94-.34-.94a.13.13,0,0,0-.17-.07.12.12,0,0,0-.07.16s.14.37.33.93a7.29,7.29,0,0,1,.38,2.09,7.91,7.91,0,0,0,.21,2.2,1.64,1.64,0,0,0,.41.67c.16.14.4.19.44.12A1.25,1.25,0,0,1,58.24,160.75Z"/><path class="b" d="M52.74,101.06l-1,1.21c-.28.37-.63.8-.95,1.31a5.47,5.47,0,0,0-.71,1.76,5.29,5.29,0,0,0-.1,1c0,.32,0,.63,0,.92a14.91,14.91,0,0,1,.06,1.57,2.8,2.8,0,0,1-.06.61,2.07,2.07,0,0,1-.12.45l-.16.37v0a.12.12,0,0,0,.06.16.11.11,0,0,0,.16-.06l.2-.41a2.14,2.14,0,0,0,.14-.48,4,4,0,0,0,.1-.65,14.53,14.53,0,0,0,0-1.61c0-.29,0-.58,0-.87a6,6,0,0,1,.12-.89,5.05,5.05,0,0,1,.72-1.58,11,11,0,0,1,1-1.23l1-1.17a.3.3,0,1,0-.45-.4Z"/><path class="b" d="M53.48,94.63a.18.18,0,0,0-.12.09,1.33,1.33,0,0,0,0,.32,3.51,3.51,0,0,0,.24,1,7.6,7.6,0,0,0,.64,1.33,3.64,3.64,0,0,0,.24.35l.26.32a6.76,6.76,0,0,0,.58.62l.58.59a7.43,7.43,0,0,1,.53.59,6.8,6.8,0,0,1,.43.6,3.81,3.81,0,0,1,.34.56,6.23,6.23,0,0,1,.43.89l.15.35h0a.11.11,0,0,0,.16.07.14.14,0,0,0,.07-.16l-.14-.36a7.13,7.13,0,0,0-.39-.95,6.24,6.24,0,0,0-.33-.61c-.14-.2-.27-.44-.44-.64s-.32-.43-.52-.63l-.57-.61c-.19-.2-.37-.38-.55-.6l-.25-.32a2.23,2.23,0,0,1-.2-.3,7.78,7.78,0,0,1-.6-1.25,3.49,3.49,0,0,1-.2-.92,1.55,1.55,0,0,1,0-.23.25.25,0,0,0-.1-.12A.34.34,0,0,0,53.48,94.63Z"/><path class="b" d="M48.59,74.09l.12.41a2.91,2.91,0,0,1,0,1,3,3,0,0,1-.18.67,4.66,4.66,0,0,1-.35.71c-.14.24-.34.45-.52.71s-.4.46-.6.69-.41.48-.6.73a8.84,8.84,0,0,0-.53.77,3.77,3.77,0,0,0-.34.81,3.28,3.28,0,0,0-.16.78,3,3,0,0,0,0,.67,4,4,0,0,0,.11.51c.12.26.18.41.18.41a.13.13,0,0,0,.17.07.12.12,0,0,0,.06-.16v0l-.14-.38a3.93,3.93,0,0,1-.08-.46,3.23,3.23,0,0,1,0-.61,4,4,0,0,1,.18-.7,3.65,3.65,0,0,1,.35-.72,6.66,6.66,0,0,1,.52-.7c.19-.23.41-.45.62-.68s.45-.46.65-.7a8.2,8.2,0,0,0,.57-.72,4.77,4.77,0,0,0,.44-.79,4.05,4.05,0,0,0,.25-.77,3.53,3.53,0,0,0,0-1.28l-.11-.41a.33.33,0,0,0-.41-.25.33.33,0,0,0-.25.41Z"/><path class="b" d="M30.44,170.84h-.21a7.44,7.44,0,0,1-1.4-.23,1.63,1.63,0,0,1-1.25-.92,1.54,1.54,0,0,1,.26-1.34,7.3,7.3,0,0,1,1.33-1.44l.3-.27c1-.93,2.58-4.59,3.28-5.68l.18.55c-1.57,3.2-1.23,5.22-.95,6,.05.15.12.31.18.47a2.36,2.36,0,0,1,.24,1.86A2,2,0,0,1,30.44,170.84ZM32,163c-1,1.33-1.63,3.39-2.28,4l-.3.28a7,7,0,0,0-1.26,1.35,1.18,1.18,0,0,0-.22,1c.1.29.43.51,1,.66a5.86,5.86,0,0,0,1.32.21h.18c.38,0,1.3-.07,1.58-.73a2,2,0,0,0-.24-1.54c-.07-.17-.14-.33-.2-.5A8.14,8.14,0,0,1,32,163Z"/><path class="b" d="M27.79,169.63a.11.11,0,0,1,0,.06s-.05.06-.09.1l-.35.3c-.29.26-.67.6-1.06.93-.77.69-1.56,1.34-1.56,1.34h0s0,0,0,0,.7-.75,1.43-1.48l1-1,.33-.33a.31.31,0,0,1,.1-.08h.07A.27.27,0,0,1,27.79,169.63Z"/><path class="b" d="M28.2,170.13s0,0,0,.06l-.09.12-.31.41L26.86,172l-1.52,1.74a0,0,0,0,1-.05,0,0,0,0,0,1,0-.06s.71-.9,1.41-1.81l.88-1.32.29-.43.08-.13s.06,0,.06,0A.31.31,0,0,1,28.2,170.13Z"/><path class="b" d="M29.06,170.53a.11.11,0,0,1,0,.07c0,.05,0,.09-.05.15l-.24.48-.33.69-.42.78a2.73,2.73,0,0,1-.23.4l-.27.34a4.4,4.4,0,0,1-.5.59c-.33.31-.54.53-.54.53a0,0,0,0,1-.07-.07l.47-.57a5.7,5.7,0,0,0,.45-.61l.25-.35c.07-.09.13-.26.2-.38s.12-.28.19-.41l.17-.38.3-.71c.09-.2.16-.38.21-.5s0-.11.08-.13a.14.14,0,0,1,.07,0A.28.28,0,0,1,29.06,170.53Z"/><path class="b" d="M30.09,170.82,29.24,173,28.13,175s0,0-.05,0,0,0,0,0h0l.92-2.1.68-2.21a.22.22,0,0,1,.43.13Z"/><path class="b" d="M31.61,170.55l-.06.74c0,.44-.07,1-.15,1.63a8.32,8.32,0,0,1-.15.87,5.59,5.59,0,0,1-.2.74l-.29.69a0,0,0,1,1-.07,0h0l.22-.7a5.59,5.59,0,0,0,.14-.73,6,6,0,0,0,.07-.86c0-.58,0-1.18,0-1.62v-.74a.24.24,0,0,1,.24-.24.24.24,0,0,1,.24.24Z"/><path class="b" d="M31.86,166.67l.42.45.19.23a2.16,2.16,0,0,1,.18.3,2.6,2.6,0,0,1,.3.68,4,4,0,0,1,.16,1.36,3.58,3.58,0,0,1,0,.45l0,.17s0,0,0,0,0,0,0,0v-.17a4.34,4.34,0,0,0,0-.44,3.8,3.8,0,0,0-.21-1.31,2.84,2.84,0,0,0-.31-.63,1.51,1.51,0,0,0-.18-.26l-.2-.22-.44-.44a.12.12,0,0,1,.17-.17h0Z"/><path class="b" d="M32.36,169.89l0,.12a.65.65,0,0,1,0,.17.53.53,0,0,1,0,.22c0,.15-.07.28-.11.45a2.81,2.81,0,0,0-.09.49,2,2,0,0,0,0,.49,1.23,1.23,0,0,0,.1.42,1.82,1.82,0,0,0,.22.36l0,0h0a1.3,1.3,0,0,1-.28-.35,1.62,1.62,0,0,1-.17-.44,2.93,2.93,0,0,1,0-.53,2.82,2.82,0,0,1,0-.52c0-.16,0-.33,0-.44a.39.39,0,0,0,0-.23l0-.12a.18.18,0,0,1,.11-.24.18.18,0,0,1,.24.1Z"/><path class="b" d="M33.39,164.13a4,4,0,0,1-.56.93,2.91,2.91,0,0,1-.24.27,2.06,2.06,0,0,0-.57.85,2.21,2.21,0,0,0,0,.85,1.39,1.39,0,0,1,0,.86.12.12,0,0,0,.06.16l0,0a.15.15,0,0,0,.12-.07,1.66,1.66,0,0,0,0-1,1.9,1.9,0,0,1,0-.75,2,2,0,0,1,.51-.74,3.45,3.45,0,0,0,.26-.28,4.13,4.13,0,0,0,.45-.72A1.66,1.66,0,0,1,33.39,164.13Z"/><path class="b" d="M32.15,163.74l-.06.18a1.19,1.19,0,0,0-.05.22l0,.27c0,.09,0,.21,0,.33a3.15,3.15,0,0,0,.09.36,3.89,3.89,0,0,0,.16.38l.18.39c.13.27.26.52.37.77a3.26,3.26,0,0,1,.21.73,1.85,1.85,0,0,1,0,.53l0,.2s0,0,0,0a0,0,0,0,1,0,0h0l0-.2a1.78,1.78,0,0,0,0-.51,4,4,0,0,0-.23-.69c-.12-.24-.27-.5-.4-.75l-.2-.39a3.52,3.52,0,0,1-.18-.39,2.78,2.78,0,0,1-.12-.38c0-.13-.05-.25-.05-.37v-.33c0-.1,0-.16.05-.23l.06-.19a.12.12,0,0,1,.15-.08.11.11,0,0,1,.09.15Z"/><path class="b" d="M57.32,169.86a2.41,2.41,0,0,1,.25-1.86c.06-.16.13-.32.18-.47.28-.8.62-2.82-1-6l.36-.21c.71,1.1,2.11,4.41,3.11,5.34l.3.27a7,7,0,0,1,1.32,1.44,1.51,1.51,0,0,1,.27,1.34,1.63,1.63,0,0,1-1.25.92,7.44,7.44,0,0,1-1.4.23h-.21A2,2,0,0,1,57.32,169.86Zm.82-2.2a5.1,5.1,0,0,1-.19.5,2,2,0,0,0-.24,1.54c.27.66,1.19.73,1.58.73h.18a5.86,5.86,0,0,0,1.32-.21c.54-.15.87-.37,1-.66a1.22,1.22,0,0,0-.22-1,7,7,0,0,0-1.26-1.35l-.3-.28c-.65-.6-1.08-2-2-3.37A5.83,5.83,0,0,1,58.14,167.66Z"/><path class="b" d="M61.94,169.63a.11.11,0,0,0,0,.06s0,.06.09.1l.35.3c.29.26.67.6,1.06.93.77.69,1.56,1.34,1.56,1.34h0s0,0,0,0-.7-.75-1.43-1.48l-1-1-.32-.33c-.05,0-.07-.07-.1-.08h-.07A.27.27,0,0,0,61.94,169.63Z"/><path class="b" d="M61.52,170.13s0,0,0,.06l.08.12c.08.1.19.24.31.41.26.35.61.81.95,1.28l1.52,1.74s0,0,0,0a0,0,0,0,0,0-.06L63,171.88l-.87-1.32-.29-.43-.08-.13a.06.06,0,0,0-.06,0A.36.36,0,0,0,61.52,170.13Z"/><path class="b" d="M60.67,170.53a.11.11,0,0,0,0,.07c0,.05,0,.09,0,.15s.14.28.23.48l.34.69.42.78a2.73,2.73,0,0,0,.23.4l.27.34a4.4,4.4,0,0,0,.5.59l.54.53a0,0,0,0,0,.07,0,.09.09,0,0,0,0-.07l-.48-.57c-.14-.16-.28-.38-.45-.61l-.24-.35c-.07-.09-.13-.26-.2-.38l-.19-.41-.18-.38-.29-.71-.21-.5c0-.06,0-.11-.08-.13a.17.17,0,0,0-.08,0A.26.26,0,0,0,60.67,170.53Z"/><path class="b" d="M59.63,170.82l.86,2.15,1.1,2.05a0,0,0,0,0,0,0s0,0,0,0h0s-.46-1-.93-2.1-.67-2.21-.67-2.21a.22.22,0,1,0-.43.13Z"/><path class="b" d="M58.12,170.55l.05.74c0,.44.08,1,.16,1.63a6.33,6.33,0,0,0,.15.87,5.59,5.59,0,0,0,.2.74l.29.69s0,0,.05,0a0,0,0,0,0,0-.05h0l-.23-.7a5.71,5.71,0,0,1-.13-.73,6,6,0,0,1-.07-.86c0-.58,0-1.18,0-1.62v-.74a.24.24,0,0,0-.24-.24.25.25,0,0,0-.24.24Z"/><path class="b" d="M57.87,166.67l-.42.45-.19.23c-.07.08-.12.2-.19.3a3,3,0,0,0-.29.68,4,4,0,0,0-.16,1.36,2.35,2.35,0,0,0,.05.45l0,.17s0,0,0,0,0,0,0,0l0-.17a2.76,2.76,0,0,1,0-.44,3.8,3.8,0,0,1,.21-1.31,2.47,2.47,0,0,1,.31-.63,1.51,1.51,0,0,1,.18-.26l.2-.22.44-.44a.11.11,0,0,0,0-.17.13.13,0,0,0-.18,0h0Z"/><path class="b" d="M57.37,169.89l0,.12a.65.65,0,0,0,0,.17.53.53,0,0,0,0,.22c0,.15.07.28.1.45a2.13,2.13,0,0,1,.1.49,2,2,0,0,1,0,.49,1.52,1.52,0,0,1-.1.42,1.82,1.82,0,0,1-.22.36l0,0h0a1.57,1.57,0,0,0,.28-.35,1.34,1.34,0,0,0,.16-.44,2.22,2.22,0,0,0,0-.53,4.07,4.07,0,0,0,0-.52c0-.16-.05-.33-.05-.44a.39.39,0,0,1,0-.23l0-.12a.18.18,0,1,0-.34-.14Z"/><path class="b" d="M57.69,167a2.21,2.21,0,0,0,0-.85,2,2,0,0,0-.58-.85l-.24-.27a4.6,4.6,0,0,1-.46-.74c0,.1-.09-.21-.11-.11a4.15,4.15,0,0,0,.38,1,1.67,1.67,0,0,0,.25.28,1.89,1.89,0,0,1,.52.74,2.12,2.12,0,0,1,0,.75,1.66,1.66,0,0,0,.05,1,.14.14,0,0,0,.11.07l.06,0a.12.12,0,0,0,.06-.16A1.39,1.39,0,0,1,57.69,167Z"/><path class="b" d="M57.57,163.74l.06.18a.71.71,0,0,1,.06.22l0,.27c0,.09,0,.21,0,.33a3.15,3.15,0,0,1-.09.36,3.89,3.89,0,0,1-.16.38l-.18.39c-.13.27-.27.52-.37.77a2.81,2.81,0,0,0-.21.73,1.85,1.85,0,0,0,0,.53l0,.2s0,0,0,0a0,0,0,0,0,0,0h0l0-.2a1.47,1.47,0,0,1,0-.51,4,4,0,0,1,.23-.69c.11-.24.26-.5.4-.75l.19-.39a2.35,2.35,0,0,0,.19-.39,1.82,1.82,0,0,0,.11-.38c0-.13.05-.25.06-.37v-.33a1.09,1.09,0,0,0-.06-.23l0-.19a.12.12,0,0,0-.15-.08.11.11,0,0,0-.09.15Z"/><path class="d" d="M53.62,45.3a4.54,4.54,0,0,0-.32-1.79A2.82,2.82,0,0,0,53,43a3.21,3.21,0,0,1-.5-1.87c0-.12,0-.23,0-.35a1.27,1.27,0,0,0-.13-.48,1,1,0,0,0-.66-.49,3.29,3.29,0,0,1-1-.57,1,1,0,0,0-.25-.62,1.31,1.31,0,0,0-.45-.28,3.52,3.52,0,0,0-2.47-.17,9.1,9.1,0,0,0-1.46.54A3.65,3.65,0,0,0,45,39.78c-.3.34-.66.63-1,.95-.57.57-.26,2.16-.28,3a1.68,1.68,0,0,0,.4,1.23c.13.13.29.22.41.35.45.49.25,1.28.47,1.9a2.08,2.08,0,0,0,1.11,1.11c.48.23,1,.36,1.48.56.7.3,1.33.75,2,1a2.52,2.52,0,0,0,2.19.05,2.35,2.35,0,0,0,.68-.62A6.33,6.33,0,0,0,53.62,45.3Z"/><path class="e" d="M50.65,38.88a.91.91,0,0,0-.17-.28,1.31,1.31,0,0,0-.45-.28,3.52,3.52,0,0,0-2.47-.17,2.87,2.87,0,0,0-1.13.7c.85.62,1.77,1.67,3,1.06a3.48,3.48,0,0,1,.93-.29A2.78,2.78,0,0,1,50.65,38.88Z"/><path class="e" d="M50.41,39.74a1.34,1.34,0,0,1-1.24,1.17c-.56,0-1.45-.63-1.45-1.21s.88-1,1.44-1A1.26,1.26,0,0,1,50.41,39.74Z"/><path class="c" d="M62,44.08a6.54,6.54,0,0,0-.41-.51,3.37,3.37,0,0,0-.8-.53c-.31-.17-.69-.34-1-.55-.08-.06-.16-.1-.24-.17l-.24-.24a2.46,2.46,0,0,1-.31-.52c-.16-.42-.31-1-.53-1.47a6.41,6.41,0,0,0-.39-.79c-.07-.14-.16-.24-.23-.36l-.12-.17a1.81,1.81,0,0,0-.17-.19,3.5,3.5,0,0,0-.69-.64,3.25,3.25,0,0,0-.45-.25l-.23-.12L56,37.51a3.86,3.86,0,0,0-1.88,0,9.44,9.44,0,0,1-1.6.28,9,9,0,0,0-2.2.48c-.21.09-2.15.73-1.78,1.68a.75.75,0,0,0,1,.35c.51-.19,1.07-1.51,1.52-1.62s1-.06,1.54-.1a10.56,10.56,0,0,0,1.68-.3,3.18,3.18,0,0,1,1.53,0l.21.06.15.08a2.38,2.38,0,0,1,.31.17A3.41,3.41,0,0,1,57,39a4.25,4.25,0,0,1,.47.64,4.83,4.83,0,0,1,.35.68c.23.47.36,1,.59,1.44a2.19,2.19,0,0,0,.46.69l.25.24.32.21a9.88,9.88,0,0,0,1.09.54c.31.14,1.59.91,1.54.81Z"/><path class="c" d="M55.25,34.43l-.25.1a1.66,1.66,0,0,0-.5.39,1.8,1.8,0,0,0-.42.8,2.81,2.81,0,0,0,0,.53,1.25,1.25,0,0,1,0,.31l-.08.28a2.08,2.08,0,0,1-.35.54,2.32,2.32,0,0,1-.46.38,3,3,0,0,1-.26.15l-.23.1a2.79,2.79,0,0,1-.47.14,7.07,7.07,0,0,1-1,.17h0a.21.21,0,0,1-.23-.2c0-.11.59-.25,1.12-.36a2.09,2.09,0,0,0,.43-.11l.23-.09c.06,0,.14-.08.21-.11a2,2,0,0,0,.4-.31,1.44,1.44,0,0,0,.28-.4l.1-.27s0-.17,0-.25a2.9,2.9,0,0,1,.08-.57,2.09,2.09,0,0,1,1.12-1.34l.24-.09a.11.11,0,1,1,.09.21Z"/><path class="c" d="M58.14,35.57h-.25a2.5,2.5,0,0,0-.25,0,2.06,2.06,0,0,0-.32.07,2.18,2.18,0,0,0-.72.38,2.34,2.34,0,0,0-.31.32c-.1.11-.17.28-.27.42a4.21,4.21,0,0,1-.28.45,3.07,3.07,0,0,1-.38.42,2.89,2.89,0,0,1-.43.31,2.16,2.16,0,0,1-.45.19,1.67,1.67,0,0,1-.72,0l-.27-.07a.19.19,0,0,1-.13-.25.18.18,0,0,1,.17-.14h.26a1.11,1.11,0,0,0,.23,0,1.28,1.28,0,0,0,.29-.08,2.38,2.38,0,0,0,.66-.4,2.3,2.3,0,0,0,.32-.31,4.33,4.33,0,0,0,.3-.41,3.73,3.73,0,0,1,.32-.44,2.35,2.35,0,0,1,1.33-.71,2.63,2.63,0,0,1,.39,0,2.07,2.07,0,0,1,.29,0l.24.05a.1.1,0,0,1,.07.12A.1.1,0,0,1,58.14,35.57Z"/><path class="c" d="M61.49,38.85l-.19-.1a1.05,1.05,0,0,0-.21-.06l-.3,0a3.2,3.2,0,0,0-.75,0c-.27,0-.57.09-.87.14s-.61.11-.92.14l-.44,0-.42,0-.16,0L57,38.84a1,1,0,0,1-.27-.18.89.89,0,0,1-.17-.24.19.19,0,0,1,.09-.26.19.19,0,0,1,.15,0l.1,0,.13.06s.09,0,.16,0l.1,0,.16,0h.33a2.51,2.51,0,0,0,.39,0c.28,0,.58,0,.89-.07a7.23,7.23,0,0,1,.93,0,2.93,2.93,0,0,1,.83.11l.31.11a1.63,1.63,0,0,1,.24.13l.16.14a.07.07,0,0,1,0,.11A.06.06,0,0,1,61.49,38.85Z"/><path class="b" d="M61.18,41.81l-.44,0a1.6,1.6,0,0,0-.47,0,4.15,4.15,0,0,0-.6.16c-.45.16-.94.41-1.5.66a6,6,0,0,1-.9.33,3.65,3.65,0,0,1-.52.11l-.48,0a8.22,8.22,0,0,1-1,0h-.92c-.31,0-.57,0-.83,0a3.2,3.2,0,0,0-.72.11c-.22.05-.43.08-.6.13l-.42.18-.37.15-.09,0a.49.49,0,0,1-.65-.27.5.5,0,0,1,.28-.65h0l.46-.15L52,42.5c.21,0,.44-.07.7-.11a4.21,4.21,0,0,1,.82-.06c.28,0,.61,0,.9,0l.93.08a5.43,5.43,0,0,0,.92.08h.48a2.35,2.35,0,0,0,.42-.06A6.32,6.32,0,0,0,58,42.2c.56-.2,1.09-.42,1.56-.55a4.85,4.85,0,0,1,.68-.14,3.36,3.36,0,0,1,.54,0l.43.06a.13.13,0,0,1,.11.14A.12.12,0,0,1,61.18,41.81Z"/><path class="b" d="M58.61,51.46l0-.14a1.43,1.43,0,0,1,0-.42,5.07,5.07,0,0,1,.29-1.44,4.26,4.26,0,0,0,.19-.89.91.91,0,0,0,0-.23v-.26a2.87,2.87,0,0,0-.63-1.37,3.93,3.93,0,0,0-.81-.71,5.41,5.41,0,0,0-1-.46,6.75,6.75,0,0,0-1-.26c-.34-.06-.71-.1-1-.13l-.95-.06a13.85,13.85,0,0,0-1.4,0h-.56a.51.51,0,0,1-.52-.51.52.52,0,0,1,.51-.53h0l.57,0c.35,0,.88,0,1.45.11l.95.12c.37.06.71.12,1.09.21a7.12,7.12,0,0,1,1.16.38,5.62,5.62,0,0,1,1.08.58,4.47,4.47,0,0,1,.9.89,3.27,3.27,0,0,1,.54,1.11,2.43,2.43,0,0,1,.1.6v.41l0,.14a5.41,5.41,0,0,1-.26,1,5,5,0,0,0-.37,1.33,1.15,1.15,0,0,0,0,.38l0,.14a.13.13,0,0,1-.25,0Z"/><path class="b" d="M56.57,50.23l-.12-.95a2.27,2.27,0,0,1,0-.47c0-.17,0-.34,0-.53a7.3,7.3,0,0,1,.09-1.14,4,4,0,0,0,0-1.08.91.91,0,0,0,0-.23.93.93,0,0,0-.08-.22,1.3,1.3,0,0,0-.21-.34.86.86,0,0,0-.66-.36.21.21,0,1,1,0-.42,1.14,1.14,0,0,1,.31.06.91.91,0,0,1,.33.16,1.33,1.33,0,0,1,.32.31,1.68,1.68,0,0,1,.26.46,1,1,0,0,1,.08.26A1.35,1.35,0,0,1,57,46a4.17,4.17,0,0,1-.08,1.17,7.3,7.3,0,0,0-.13,1.1c0,.17,0,.34,0,.5a2.3,2.3,0,0,0,0,.46c.06.57.09,1,.09,1a.12.12,0,0,1-.11.14A.12.12,0,0,1,56.57,50.23Z"/><path class="f" d="M50.87,38s-1.53-3-3-2.47-2.49,1.51-2.07,4.68l.67.58a11,11,0,0,1,1.4-.74s-1-2.09.84-2.05a1.76,1.76,0,0,1,1.11.4Z"/><path class="c" d="M28.11,35.81c-.23.42-.27.69-.48,1.15a13.77,13.77,0,0,0-.52,1.53,14.28,14.28,0,0,0-.4,1.56c-.06.28-.13.51-.17.83l-.11.79c-.08.53-.15,1.07-.22,1.61S26,44.35,26,44.9l-.09,1.67c-.06,1.11-.13,2.23-.13,3.32,0,2.22-.08,4.41-.14,6.57a43.4,43.4,0,0,1-.71,6.27,23.68,23.68,0,0,1-1.79,5.56l-.62,1.23c-.23.39-.48.75-.72,1.12l-.35.55-.4.5-.8,1a14.81,14.81,0,0,0-2,3.77,12.18,12.18,0,0,0-1,3.39,12.69,12.69,0,0,0-.08,2.28c0,.52.06.8.06.8s0,4.42.09,4.41.33-4.32.32-4.44h0l0-.78a13.51,13.51,0,0,1,.12-2.19,12,12,0,0,1,1-3.23,14.46,14.46,0,0,1,2-3.62l.81-1,.42-.51c.13-.18.25-.37.38-.56.25-.37.52-.75.77-1.15l.67-1.26a24.5,24.5,0,0,0,1.91-5.72,44,44,0,0,0,.79-6.38c.08-2.17.17-4.39.21-6.58,0-1.11.09-2.19.16-3.27L27,45c0-.53.14-1.07.21-1.61l.24-1.6.11-.8c0-.21.12-.5.17-.74a14.34,14.34,0,0,1,.4-1.5,12.51,12.51,0,0,1,.5-1.42c.14-.29.57-1,.7-1.27C29.06,35.79,28.36,36.12,28.11,35.81Z"/><path class="c" d="M17.54,83.24a.23.23,0,0,1-.16,0,.21.21,0,0,1-.06-.29c2.33-3.6,3.45-7.64,5.08-11.54l1.33-3.19a10.38,10.38,0,0,0,.95-3.25.21.21,0,1,1,.41,0,10.56,10.56,0,0,1-1,3.39l-1.33,3.19c-1.64,3.92-2.76,8-5.11,11.61A.3.3,0,0,1,17.54,83.24Z"/><path class="c" d="M26.84,45.23l-.63,1.59c-.21.51-.48,1.13-.78,1.83s-.66,1.48-.95,2.34a14.89,14.89,0,0,0-.69,2.87,29,29,0,0,0-.23,3.34c0,.58-.07,1.19-.12,1.8,0,.3-.05.61-.08.92s-.11.61-.16.92a23.94,23.94,0,0,1-1.12,3.61c-.46,1.16-.92,2.32-1.37,3.47-.23.57-.44,1.14-.62,1.71s-.4,1.12-.52,1.68-.25,1.12-.37,1.67A14.61,14.61,0,0,0,19,74.6c-.12,1.07.38,2.08.31,3A15.27,15.27,0,0,1,19,80.16c-.09.38-.18.74-.27,1.06s-.23.61-.34.87-.1.25-.14.37l-.18.3-.29.47-.24.4c-.06.1-3.18,5.15-3.28,5.09s2.87-5.21,2.92-5.3l0,0L17.4,83l.26-.45.17-.29.14-.35.32-.83c.07-.31.16-.65.24-1a14.77,14.77,0,0,0,.32-2.51c.07-.94-.44-1.95-.34-3,.06-.54.06-1.08.18-1.66s.24-1.13.37-1.71.34-1.14.52-1.72.38-1.17.6-1.74l1.34-3.48a22.87,22.87,0,0,0,1.06-3.52c.05-.29.13-.61.15-.89l.06-.89c.05-.59.1-1.18.1-1.77a33.91,33.91,0,0,1,.21-3.4,15.46,15.46,0,0,1,.69-3c.29-.91.65-1.71.94-2.41l.76-1.81.61-1.6a.39.39,0,0,1,.51-.23.38.38,0,0,1,.23.51Z"/><path class="b" d="M28.09,35.38l-.36-.45-.11-.13a12.63,12.63,0,0,0-2.34,4.94,32.47,32.47,0,0,0-1.09,10.69c0,.69.08,1.38.12,2.08.18,2.85.37,5.8-.44,8.52a23.63,23.63,0,0,1-1.55,3.71A19.31,19.31,0,0,0,21.48,67a20.85,20.85,0,0,1-.8,2.12.41.41,0,0,0,.19.55.39.39,0,0,0,.28,0,.4.4,0,0,0,.27-.22,20.06,20.06,0,0,0,.85-2.22,17,17,0,0,1,.8-2.12,26,26,0,0,0,1.6-3.83c.84-2.87.65-5.89.47-8.81-.05-.69-.09-1.38-.12-2.06A31.31,31.31,0,0,1,26.08,40,19.53,19.53,0,0,1,28.09,35.38Z"/><path class="b" d="M17.45,82.56,15,86.6a9.33,9.33,0,0,0-.59,2.09,5.45,5.45,0,0,0,.06,2.13,1.85,1.85,0,0,0,.38.87.75.75,0,0,0,.39.21,1,1,0,0,0,.46,0,1.34,1.34,0,0,0,.77-.49,2.28,2.28,0,0,0,.42-.93,12.59,12.59,0,0,0,.2-2.17c0-.74,0-1.48.05-2.22s.63-1.49.66-2.23.23-1.5.34-2.24a19.92,19.92,0,0,1,.72-2.14c.28-.71.59-1.37.88-2s0-1.34.21-2.06c.1-.35.23-.71.33-1.06l.23-1.07a19.36,19.36,0,0,0,.31-2.16A8,8,0,0,0,20.89,70v-.55a.76.76,0,0,1,.17-.55l.22.07h0a1.67,1.67,0,0,1-.37.83l-.46.74a13.62,13.62,0,0,0-.74,1.6,24.46,24.46,0,0,0-1,3.42l-.21,3.53c-.14.59-.29,1.18-.46,1.76a17.68,17.68,0,0,1-.6,1.73Zm-.36-.15c.21-.55.4-1.12.56-1.69s.3-1.16.42-1.75l.09-3.55c.12-.59.25-1.19.4-1.78a16.25,16.25,0,0,1,.55-1.76,14.14,14.14,0,0,1,.78-1.68l.49-.79a1.89,1.89,0,0,1,.72-.62h0V68.6l.23.27a.7.7,0,0,1,.15.56V70a8.47,8.47,0,0,1-.05,1.13,18.93,18.93,0,0,1-.34,2.24l-.25,1.11c-.1.36-.22.7-.33,1.06-.21.71.05,1.42-.23,2.1s-.62,1.36-.88,2a16.9,16.9,0,0,0-.72,2.07c-.11.72-.27,1.43-.33,2.16s-.68,1.46-.68,2.21,0,1.49-.06,2.23a12.51,12.51,0,0,1-.22,2.25,2.83,2.83,0,0,1-.5,1.08,1.74,1.74,0,0,1-1.06.68,1.53,1.53,0,0,1-.64,0,1.16,1.16,0,0,1-.34-.12,1,1,0,0,1-.24-.18,2.1,2.1,0,0,1-.53-1.12,7.52,7.52,0,0,1,.57-4.47Z"/><path class="b" d="M16.2,89.46a1.57,1.57,0,0,1-.53.05,1.6,1.6,0,0,1-1.13-.63,1.54,1.54,0,0,1-.32-1.15.17.17,0,0,1,.2-.13.16.16,0,0,1,.13.19,1.16,1.16,0,0,0,.25.89,1.31,1.31,0,0,0,.9.5,1.53,1.53,0,0,0,1.5-1.08.14.14,0,0,1,0-.2.19.19,0,0,1,.23-.07.25.25,0,0,1,.13.28A1.9,1.9,0,0,1,16.2,89.46Z"/><path class="b" d="M26.93,36.94l-.28.21a3.73,3.73,0,0,0-.71.59l-.42.42-.4.55a6,6,0,0,0-.69,1.3A13.24,13.24,0,0,0,24,41.45c-.13.46-.28.91-.39,1.28a7.56,7.56,0,0,1-.38.88l-.15.33a.12.12,0,0,1-.17.06.12.12,0,0,1-.06-.16v0L23,43.5c.07-.21.23-.49.34-.86s.23-.79.34-1.28.26-1,.42-1.47a4.86,4.86,0,0,1,.32-.74,3.6,3.6,0,0,1,.37-.67l.42-.6.45-.48a4.07,4.07,0,0,1,.72-.64l.27-.22a.26.26,0,0,1,.36,0,.25.25,0,0,1,0,.35Z"/><path class="b" d="M24.69,53.81l-.8.83-1,1.1c-.18.22-.38.43-.55.67a5.42,5.42,0,0,0-.85,1.6c-.1.28-.17.56-.24.83-.13.54-.22,1-.29,1.49s-.1.8-.12,1.06a1.85,1.85,0,0,0,0,.32.27.27,0,0,0,0,.12c.15.19.24,0,.23,0a.12.12,0,0,0,0-.14v0a1.63,1.63,0,0,1,0-.28c0-.25.08-.61.16-1s.19-.93.33-1.46c.07-.26.16-.53.25-.79a4.11,4.11,0,0,1,.37-.76,4.43,4.43,0,0,1,.47-.69c.17-.22.38-.42.55-.62L24.26,55l.61-.59A3.42,3.42,0,0,1,24.69,53.81Zm-3.85,7.9s0,0,.07,0S20.86,61.68,20.84,61.71Z"/><path class="b" d="M27.53,48.87a4.05,4.05,0,0,0-.7-.78l-.75-.66-.34-.35c-.1-.1-.18-.25-.27-.36a4.17,4.17,0,0,1-.54-1.55A9.78,9.78,0,0,1,24.85,44v-.26a2.37,2.37,0,0,1-.44.77c0,.22,0,.47.09.74a4.4,4.4,0,0,0,.63,1.69,3,3,0,0,0,.32.41l.35.35.78.66a4.33,4.33,0,0,1,.66.7,3.34,3.34,0,0,1,.36.85,7.82,7.82,0,0,1,.29,1.67c0,.5.05.92.05,1.22v.49h0a.12.12,0,0,0,.13.08c.14-.06.08-.07.1-.07a.28.28,0,0,0,0-.09h0v-.41c0-.3,0-.73,0-1.24a8.54,8.54,0,0,0-.26-1.74A4.17,4.17,0,0,0,27.53,48.87Zm.56,4.26h0Zm-.06,0-.05,0S28,53.17,28,53.14Zm.13,0,0,0Z"/><path class="b" d="M28.63,44q-.15-.48-.3-1A11.9,11.9,0,0,1,28,40.7c-.05-.78-.05-1.56-.06-2.3s.05-1.42.09-2l.05-.79a2.45,2.45,0,0,1,0-.27L27.77,35a5.28,5.28,0,0,0-.11.57c0,.25-.08.52-.13.82,0,.6,0,1.29,0,2s0,1.53.09,2.32c.05.39.08.81.16,1.18s.18.76.27,1.12.21.7.31,1a7.89,7.89,0,0,1,.25.91,4.15,4.15,0,0,1,.05,1.38,1.87,1.87,0,0,1-.07.37l0,.13h0a.13.13,0,0,0,.09.16.12.12,0,0,0,.15-.09l0-.14a3,3,0,0,0,.09-.41,4.36,4.36,0,0,0-.05-1.46A9.28,9.28,0,0,0,28.63,44Z"/><path class="b" d="M27.82,38.31l.18.13a3.25,3.25,0,0,1,.45.42,4.46,4.46,0,0,1,.86,1.59,7.33,7.33,0,0,1,.32,1.75c0,.24,0,.44,0,.58V43h0a.13.13,0,0,1-.1.09c-.1,0-.09,0-.1,0a.13.13,0,0,1,0-.17.12.12,0,0,1,.17,0s0,0-.09,0a.11.11,0,0,0-.09.09h0v-.18c0-.14,0-.33,0-.56A7.81,7.81,0,0,0,29,40.55a4,4,0,0,0-.83-1.44,2.19,2.19,0,0,0-.4-.35l-.18-.12a.19.19,0,0,1-.05-.27.2.2,0,0,1,.27-.06Z"/><path class="b" d="M14.21,91.16c-.55.88-1.1,1.8-1.71,2.62.5-1.1,1.13-2.19,1.73-3.25Z"/><path class="b" d="M14.41,91.47l-.11.36-.44,1.38-.77,1.94a0,0,0,0,0,0,0s0,0,0,0L14,93.28l.5-1.35.09-.23A1.51,1.51,0,0,1,14.41,91.47Z"/><path class="b" d="M15.49,92.18a8,8,0,0,1-1.22,3.51,15.42,15.42,0,0,0,.91-3.58Z"/><path class="b" d="M16.07,92c0,.42,0,1,0,1.63l-.29,2.1h0s0,0,0,0,0,0,0,0l.46-2.09c.08-.74.15-1.48.19-1.86A1.16,1.16,0,0,1,16.07,92Z"/><path class="b" d="M17.21,91.11l.15.67c.1.41.23.94.33,1.49,0,.28.11.55.12.81a4.72,4.72,0,0,1,0,.72c0,.41,0,.69,0,.69s0,0,0,0,0,0,0,0h0s0-.27,0-.68a5.21,5.21,0,0,0-.1-.69,4.5,4.5,0,0,0-.18-.77c-.14-.53-.31-1.06-.43-1.45l-.21-.66a.22.22,0,0,1,.13-.28.22.22,0,0,1,.26.15Z"/><path class="c" d="M62,36.64a12,12,0,0,1,.49,1.15A13.77,13.77,0,0,1,63,39.32c.17.51.28,1,.4,1.57.05.27.13.5.17.82l.11.8c.07.53.15,1.06.22,1.6s.17,1.07.2,1.63l.09,1.66c.06,1.11.12,2.23.12,3.33,0,2.21.09,4.4.14,6.56a44.84,44.84,0,0,0,.72,6.27A23.44,23.44,0,0,0,67,69.13l.63,1.22c.22.39.48.76.72,1.13.11.18.23.36.35.54s.27.34.4.5l.8,1a18.64,18.64,0,0,1,2.56,3.77c.59,1.26,0,2.42.2,3.4a12.57,12.57,0,0,1,.08,2.27l-.06.81c0,.11.19,3.23.08,3.22a29.1,29.1,0,0,1-.5-3.25v0l0-.78a12.69,12.69,0,0,0-.13-2.19c-.16-.92.37-2-.2-3.23a18.6,18.6,0,0,0-2.57-3.62l-.81-1c-.14-.17-.28-.33-.42-.51l-.38-.56c-.25-.38-.53-.75-.77-1.15l-.67-1.27a23.74,23.74,0,0,1-1.91-5.72,45.25,45.25,0,0,1-.8-6.37c-.08-2.18-.16-4.39-.21-6.59,0-1.1-.09-2.19-.16-3.27l-.1-1.61c0-.54-.14-1.08-.21-1.62l-.24-1.6-.12-.8c0-.21-.11-.49-.16-.74-.13-.5-.23-1-.4-1.49a15,15,0,0,0-.5-1.43c-.14-.29-.58-1-.7-1.27C61.06,36.62,61.76,37,62,36.64Z"/><path class="c" d="M72.33,84.07a.2.2,0,0,0,.17,0,.21.21,0,0,0,.06-.28c-2.34-3.61-3.21-7.65-4.84-11.55L66.39,69a9.8,9.8,0,0,1-1-3.25.21.21,0,0,0-.22-.19.21.21,0,0,0-.2.22,10.51,10.51,0,0,0,1,3.38l1.33,3.19c1.63,3.92,2.52,8,4.87,11.61A.2.2,0,0,0,72.33,84.07Z"/><path class="c" d="M63.27,46.06l.63,1.6.79,1.82c.3.7.66,1.48,1,2.35a14.71,14.71,0,0,1,.69,2.87c.13,1,.2,2.16.23,3.33,0,.59.07,1.19.12,1.8,0,.31,0,.61.08.92s.11.61.16.92A21.56,21.56,0,0,0,68,65.28c.46,1.16.91,2.33,1.37,3.47.22.57.44,1.14.61,1.71s.4,1.12.53,1.69.25,1.12.37,1.66.12,1.1.19,1.62c.11,1.07-.62,2.08-.55,3A16.43,16.43,0,0,0,70.9,81c.1.38.19.73.27,1.06s.24.6.35.86l.14.37.18.3.29.48c.16.25.24.39.24.39s2.63,3,2.72,3-2.31-3.09-2.37-3.19l0,0-.22-.38-.26-.45-.17-.29c0-.11-.09-.23-.14-.35l-.32-.82c-.07-.32-.16-.65-.25-1A17.44,17.44,0,0,1,71,78.4c-.06-.94.69-2,.59-3-.07-.54-.07-1.07-.19-1.66s-.24-1.13-.36-1.71-.35-1.14-.52-1.72-.38-1.16-.61-1.74c-.44-1.15-.89-2.31-1.33-3.48a21.81,21.81,0,0,1-1.06-3.52c-.05-.29-.13-.61-.15-.89s0-.59-.07-.89c0-.59-.09-1.17-.09-1.76A33.93,33.93,0,0,0,67,54.6a16.22,16.22,0,0,0-.69-3c-.3-.91-.65-1.7-1-2.41l-.75-1.8L64,45.77a.4.4,0,0,0-.75.28Z"/><path class="b" d="M62,36.21l.36-.45.11-.13a12.68,12.68,0,0,1,2.34,4.95,32.16,32.16,0,0,1,1.08,10.69c0,.69-.07,1.38-.11,2.07-.18,2.85-.37,5.8.43,8.52a25.7,25.7,0,0,0,1.55,3.71,20.06,20.06,0,0,1,.85,2.22,18.72,18.72,0,0,0,.8,2.12.41.41,0,0,1-.19.55.35.35,0,0,1-.28,0,.41.41,0,0,1-.28-.22,19.31,19.31,0,0,1-.84-2.22,18.72,18.72,0,0,0-.8-2.12,24.93,24.93,0,0,1-1.6-3.83c-.85-2.87-.66-5.89-.47-8.81,0-.69.09-1.38.12-2.06A31.64,31.64,0,0,0,64,40.81,20.34,20.34,0,0,0,62,36.21Z"/><path class="b" d="M72.43,83.39c-.23-.57-.43-1.14-.6-1.72s-.32-1.18-.46-1.77l0-3.53a25.9,25.9,0,0,0-1-3.42,14.46,14.46,0,0,0-.75-1.59l-.46-.75a1.77,1.77,0,0,1-.37-.82h0l.22-.08a.73.73,0,0,1,.18.55v.55a7.88,7.88,0,0,0,0,1.09,15.53,15.53,0,0,0,.31,2.17l.23,1.06c.09.36.22.71.33,1.06.21.72-.32,1.37,0,2.06s.61,1.35.88,2.06a17.24,17.24,0,0,1,.73,2.13c.11.75.28,1.49.34,2.24s.9,1.5.9,2.24,0,1.47.05,2.22a11.56,11.56,0,0,0,.2,2.16,2.28,2.28,0,0,0,.42.93,1.27,1.27,0,0,0,.77.49,1,1,0,0,0,.46,0,.69.69,0,0,0,.39-.21,2,2,0,0,0,.38-.87,5.59,5.59,0,0,0,.06-2.12,8.6,8.6,0,0,0-.6-2.09l-2.66-4Zm3,3.89a7.45,7.45,0,0,1,.58,4.47,2.24,2.24,0,0,1-.53,1.13,1.91,1.91,0,0,1-.24.17.93.93,0,0,1-.34.12,1.38,1.38,0,0,1-.64,0,1.7,1.7,0,0,1-1.06-.68,2.86,2.86,0,0,1-.5-1.07,12.62,12.62,0,0,1-.22-2.26c0-.74,0-1.48-.06-2.23s-.89-1.47-.92-2.21-.22-1.43-.33-2.15a17,17,0,0,0-.72-2.08c-.26-.67-.58-1.35-.88-2s.22-1.39,0-2.1c-.11-.35-.24-.7-.34-1.06l-.24-1.11A17.07,17.07,0,0,1,68.71,72a10.51,10.51,0,0,1-.06-1.12v-.57a.79.79,0,0,1,.15-.56l.23-.27v.2h0a1.79,1.79,0,0,1,.72.61l.49.79A13.57,13.57,0,0,1,71,72.72a17.75,17.75,0,0,1,.55,1.75c.14.59.27,1.19.39,1.78l-.14,3.56q.18.87.42,1.74c.16.57.35,1.14.56,1.69Z"/><path class="b" d="M73.92,90.3a1.58,1.58,0,0,0,1.65-.59,1.44,1.44,0,0,0,.32-1.14.17.17,0,0,0-.33.05,1.15,1.15,0,0,1-.25.89,1.25,1.25,0,0,1-.89.5,1.53,1.53,0,0,1-1.5-1.07.18.18,0,0,0,0-.21.19.19,0,0,0-.23-.07.25.25,0,0,0-.13.29A1.9,1.9,0,0,0,73.92,90.3Z"/><path class="b" d="M63.19,37.77l.28.21a5.92,5.92,0,0,1,.71.59l.42.43.4.54a3.26,3.26,0,0,1,.37.63,3.76,3.76,0,0,1,.32.67,15.09,15.09,0,0,1,.46,1.45c.12.46.27.9.39,1.28a7.36,7.36,0,0,0,.38.88c.1.21.15.33.15.33a.13.13,0,0,0,.23-.1v0l-.14-.32a6.38,6.38,0,0,1-.34-.86c-.1-.37-.23-.79-.34-1.28A14.28,14.28,0,0,0,66,40.72a6.6,6.6,0,0,0-.69-1.41l-.41-.6-.45-.48a5.71,5.71,0,0,0-.72-.64l-.28-.22a.25.25,0,0,0-.35,0,.24.24,0,0,0,0,.35Z"/><path class="b" d="M65.25,55.24l.61.6,1.07,1c.17.2.37.4.54.62a5.33,5.33,0,0,1,.48.69,4,4,0,0,1,.36.76c.1.27.18.54.26.8.14.52.25,1,.33,1.45s.13.79.16,1,0,.22,0,.28v0a.11.11,0,0,0,0,.14s.07.16.23,0a.25.25,0,0,0,0-.12c0-.08,0-.18,0-.31s-.06-.63-.13-1.07-.16-.95-.29-1.49c-.06-.27-.14-.55-.23-.83a4.34,4.34,0,0,0-.36-.83,5.94,5.94,0,0,0-.49-.77c-.18-.24-.38-.45-.56-.67l-1-1.1-.8-.83A3,3,0,0,1,65.25,55.24Zm4,7.26a.11.11,0,0,1,.06,0S69.23,62.51,69.21,62.5Z"/><path class="b" d="M62.2,50.65a9.16,9.16,0,0,0-.27,1.73c0,.52,0,.94,0,1.24V54h0a.08.08,0,0,0,0,.08s0,0,.09.07a.12.12,0,0,0,.14-.08h0s0,0,0,0v-.44c0-.3,0-.72.05-1.22a9.46,9.46,0,0,1,.29-1.67,3.78,3.78,0,0,1,.37-.85,3.93,3.93,0,0,1,.66-.7l.78-.65.35-.36a2.94,2.94,0,0,0,.31-.41,4.26,4.26,0,0,0,.63-1.68,5.62,5.62,0,0,0,.09-.75,2.54,2.54,0,0,1-.43-.77v.27A7,7,0,0,1,65.18,46a3.91,3.91,0,0,1-.54,1.54,2.36,2.36,0,0,1-.26.36l-.34.36-.75.65a4.34,4.34,0,0,0-.7.78A3.67,3.67,0,0,0,62.2,50.65ZM62.05,54h0Zm.09.07a.1.1,0,0,0,0,0S62.14,54,62.14,54Zm-.22,0,0,0Z"/><path class="b" d="M61.49,44.8q.13-.49.3-1c.08-.36.18-.71.24-1.1a10.94,10.94,0,0,0,.14-1.15c0-.78,0-1.56,0-2.3s0-1.41-.09-2A3.42,3.42,0,0,0,61.7,36c.09-.12.55,0,.65-.17,0,.17.08.35.11.58s.08.51.13.81c0,.6,0,1.3,0,2s0,1.52-.1,2.32a9.3,9.3,0,0,1-.16,1.18c-.06.38-.17.75-.26,1.12s-.21.69-.31,1a7.76,7.76,0,0,0-.25.9,4.21,4.21,0,0,0-.06,1.38,2.76,2.76,0,0,0,.08.37l0,.13v0a.14.14,0,0,1-.09.15.13.13,0,0,1-.16-.09l0-.14a3.29,3.29,0,0,1-.08-.41,4.6,4.6,0,0,1,0-1.46A7.18,7.18,0,0,1,61.49,44.8Z"/><path class="b" d="M62.29,39.15l-.18.12a3.94,3.94,0,0,0-.45.42,4.61,4.61,0,0,0-.85,1.59A7.42,7.42,0,0,0,60.49,43c0,.24,0,.44,0,.58v.23h0a.14.14,0,0,0,.09.1c.11,0,.1,0,.1,0a.12.12,0,1,0-.13-.2s0,0,.09,0a.11.11,0,0,1,.09.09h0v-.18c0-.13,0-.33,0-.56a7.24,7.24,0,0,1,.35-1.67,4.2,4.2,0,0,1,.83-1.44,4.61,4.61,0,0,1,.39-.35l.18-.12a.2.2,0,0,0-.21-.33Z"/><path class="b" d="M75.9,92c.56.87,1.11,1.79,1.72,2.61-.51-1.1-1.13-2.19-1.74-3.25Z"/><path class="b" d="M75.7,92.3l.12.37.43,1.38L77,96s0,0,0,.05,0,0,0,0l-.88-1.9c-.18-.5-.37-1-.5-1.36l-.09-.23A1.43,1.43,0,0,0,75.7,92.3Z"/><path class="b" d="M74.63,93a7.85,7.85,0,0,0,1.22,3.51,14.93,14.93,0,0,1-.91-3.58Z"/><path class="b" d="M74,92.83c0,.41,0,1,0,1.63.14,1.05.29,2.09.29,2.09h0a.05.05,0,0,1,0,0s0,0,0,0l-.46-2.09-.2-1.85A2,2,0,0,0,74,92.83Z"/><path class="b" d="M72.91,91.94l-.16.68c-.09.4-.22.94-.32,1.48a6.06,6.06,0,0,0-.13.82c0,.26,0,.5,0,.71l0,.69s0,0,0,0,0,0,0,0h0s0-.28,0-.68a6.56,6.56,0,0,1,.09-.69,7.92,7.92,0,0,1,.18-.78c.14-.53.32-1.06.44-1.45l.21-.66a.2.2,0,0,0-.13-.27.22.22,0,0,0-.27.15Z"/></svg>